<svg width="160" height="47" viewBox="0 0 160 47" fill="none" xmlns="http://www.w3.org/2000/svg">
<path d="M154.074 0H5.92593C2.65313 0 0 2.63033 0 5.875V41.125C0 44.3697 2.65313 47 5.92593 47H154.074C157.347 47 160 44.3697 160 41.125V5.875C160 2.63033 157.347 0 154.074 0Z" fill="black"/>
<path d="M38.0592 22.6939C38.0265 19.0856 41.0393 17.3301 41.1771 17.2484C39.4708 14.782 36.8261 14.445 35.8967 14.4182C33.6755 14.1864 31.5209 15.7359 30.3894 15.7359C29.2353 15.7359 27.4928 14.4405 25.6149 14.4786C23.1983 14.5156 20.9375 15.9027 19.6976 18.0567C17.1387 22.4487 19.0472 28.9029 21.4988 32.4529C22.7251 34.1916 24.1581 36.1329 26.0338 36.0646C27.8689 35.9896 28.5543 34.9048 30.7688 34.9048C32.9629 34.9048 33.6066 36.0646 35.5196 36.0209C37.489 35.9896 38.7289 34.2745 39.9123 32.5201C41.3296 30.5273 41.8987 28.5648 41.9213 28.464C41.875 28.4483 38.0965 27.0187 38.0592 22.6939Z" fill="white"/>
<path d="M34.4454 12.0817C35.4324 10.8581 36.1077 9.1933 35.9202 7.50391C34.4917 7.5666 32.7052 8.48351 31.6765 9.68031C30.7663 10.7349 29.9533 12.4635 30.1633 14.0891C31.768 14.2078 33.4155 13.2864 34.4454 12.0817Z" fill="white"/>
<path d="M64.6159 35.813H62.0513L60.6465 31.4367H55.7637L54.4255 35.813H51.9287L56.7664 20.9141H59.7544L64.6159 35.813ZM60.2231 29.6006L58.9527 25.7102C58.8183 25.3128 58.5665 24.3768 58.1949 22.9035H58.1498C58.0018 23.5372 57.7636 24.4731 57.4361 25.7102L56.1882 29.6006H60.2231Z" fill="white"/>
<path d="M77.0565 30.3077C77.0565 32.1348 76.5585 33.579 75.5625 34.6392C74.6704 35.583 73.5626 36.0543 72.2402 36.0543C70.8129 36.0543 69.7875 35.546 69.163 34.5295H69.1179V40.1888H66.7103V28.6049C66.7103 27.4562 66.6798 26.2773 66.6211 25.0682H68.7384L68.8728 26.771H68.918C69.7209 25.488 70.9394 24.8477 72.5745 24.8477C73.8528 24.8477 74.92 25.3481 75.7737 26.3501C76.6297 27.3532 77.0565 28.672 77.0565 30.3077ZM74.6038 30.395C74.6038 29.3494 74.3666 28.4873 73.8901 27.8089C73.3695 27.1013 72.6705 26.7475 71.7942 26.7475C71.2002 26.7475 70.6604 26.9446 70.1782 27.3331C69.6949 27.7249 69.3787 28.2365 69.2308 28.8702C69.1563 29.1658 69.119 29.4076 69.119 29.5979V31.3892C69.119 32.1706 69.3607 32.83 69.844 33.3685C70.3273 33.907 70.9552 34.1757 71.7276 34.1757C72.6344 34.1757 73.3401 33.8287 73.8449 33.1368C74.3508 32.4438 74.6038 31.5302 74.6038 30.395Z" fill="white"/>
<path d="M89.5202 30.3077C89.5202 32.1348 89.0222 33.579 88.0251 34.6392C87.1341 35.583 86.0263 36.0543 84.704 36.0543C83.2766 36.0543 82.2512 35.546 81.6279 34.5295H81.5827V40.1888H79.1752V28.6049C79.1752 27.4562 79.1447 26.2773 79.0859 25.0682H81.2033L81.3377 26.771H81.3828C82.1846 25.488 83.4031 24.8477 85.0394 24.8477C86.3165 24.8477 87.3837 25.3481 88.2397 26.3501C89.0922 27.3532 89.5202 28.672 89.5202 30.3077ZM87.0675 30.395C87.0675 29.3494 86.8292 28.4873 86.3527 27.8089C85.8321 27.1013 85.1353 26.7475 84.2579 26.7475C83.6628 26.7475 83.1241 26.9446 82.6408 27.3331C82.1575 27.7249 81.8424 28.2365 81.6945 28.8702C81.6211 29.1658 81.5827 29.4076 81.5827 29.5979V31.3892C81.5827 32.1706 81.8244 32.83 82.3054 33.3685C82.7888 33.9059 83.4166 34.1757 84.1913 34.1757C85.0981 34.1757 85.8039 33.8287 86.3086 33.1368C86.8145 32.4438 87.0675 31.5302 87.0675 30.395Z" fill="white"/>
<path d="M103.455 31.6344C103.455 32.9017 103.011 33.9328 102.12 34.7288C101.141 35.5987 99.7781 36.0331 98.0266 36.0331C96.4095 36.0331 95.1132 35.7241 94.1318 35.105L94.6897 33.1156C95.7467 33.7492 96.9064 34.0672 98.17 34.0672C99.0768 34.0672 99.7826 33.8634 100.29 33.4582C100.794 33.0529 101.046 32.5088 101.046 31.8303C101.046 31.2258 100.838 30.7164 100.422 30.3033C100.007 29.8902 99.3151 29.5062 98.3485 29.1513C95.7173 28.1784 94.4029 26.7532 94.4029 24.8791C94.4029 23.6543 94.8636 22.65 95.7862 21.8686C96.7054 21.086 97.9318 20.6953 99.4653 20.6953C100.833 20.6953 101.969 20.9315 102.876 21.4029L102.274 23.3486C101.427 22.8919 100.469 22.6635 99.3975 22.6635C98.5506 22.6635 97.8889 22.8706 97.4146 23.2826C97.0137 23.6509 96.8127 24.0999 96.8127 24.6316C96.8127 25.2205 97.0419 25.7075 97.5027 26.0904C97.9035 26.4442 98.6319 26.8271 99.6889 27.2402C100.982 27.7563 101.932 28.3597 102.543 29.0516C103.151 29.7413 103.455 30.6044 103.455 31.6344Z" fill="white"/>
<path d="M111.416 26.8587H108.762V32.0747C108.762 33.4014 109.23 34.0641 110.167 34.0641C110.597 34.0641 110.954 34.0272 111.236 33.9533L111.303 35.7659C110.829 35.9416 110.204 36.0301 109.431 36.0301C108.48 36.0301 107.737 35.7423 107.2 35.168C106.666 34.5926 106.397 33.6275 106.397 32.2717V26.8565H104.816V25.0652H106.397V23.0982L108.762 22.3906V25.0652H111.416V26.8587Z" fill="white"/>
<path d="M123.389 30.3541C123.389 32.0055 122.913 33.3612 121.962 34.4215C120.965 35.513 119.641 36.0571 117.991 36.0571C116.401 36.0571 115.136 35.5343 114.191 34.4886C113.247 33.443 112.775 32.123 112.775 30.5321C112.775 28.8674 113.261 27.5038 114.236 26.4436C115.208 25.3822 116.52 24.8516 118.17 24.8516C119.76 24.8516 121.039 25.3744 122.005 26.4212C122.928 27.4366 123.389 28.7476 123.389 30.3541ZM120.891 30.4314C120.891 29.4406 120.678 28.5909 120.245 27.8822C119.741 27.0246 119.019 26.5969 118.084 26.5969C117.116 26.5969 116.381 27.0257 115.876 27.8822C115.444 28.592 115.23 29.4551 115.23 30.4762C115.23 31.467 115.444 32.3167 115.876 33.0243C116.397 33.8818 117.124 34.3095 118.063 34.3095C118.982 34.3095 119.703 33.8729 120.224 33.0019C120.668 32.2798 120.891 31.4211 120.891 30.4314Z" fill="white"/>
<path d="M131.215 27.1674C130.976 27.1237 130.722 27.1013 130.456 27.1013C129.609 27.1013 128.954 27.4181 128.493 28.0529C128.092 28.6127 127.891 29.3202 127.891 30.1745V35.8114H125.485L125.507 28.4515C125.507 27.2133 125.477 26.0859 125.417 25.0693H127.514L127.602 27.1248H127.669C127.923 26.4184 128.324 25.8497 128.873 25.4231C129.409 25.0391 129.988 24.8477 130.613 24.8477C130.835 24.8477 131.036 24.8633 131.215 24.8913V27.1674Z" fill="white"/>
<path d="M141.982 29.9321C141.982 30.3598 141.954 30.7203 141.894 31.0147H134.671C134.699 32.0761 135.048 32.8877 135.719 33.4475C136.328 33.948 137.115 34.1987 138.081 34.1987C139.151 34.1987 140.126 34.0297 141.004 33.6905L141.381 35.3474C140.356 35.7907 139.145 36.0113 137.748 36.0113C136.068 36.0113 134.749 35.5209 133.789 34.5413C132.831 33.5617 132.352 32.2462 132.352 30.596C132.352 28.976 132.798 27.627 133.691 26.5511C134.626 25.4025 135.89 24.8281 137.479 24.8281C139.041 24.8281 140.224 25.4025 141.026 26.5511C141.662 27.4635 141.982 28.592 141.982 29.9321ZM139.686 29.313C139.702 28.6055 139.545 27.9942 139.219 27.4781C138.802 26.8142 138.162 26.4828 137.3 26.4828C136.513 26.4828 135.873 26.8064 135.384 27.4557C134.983 27.9718 134.744 28.5909 134.671 29.3119H139.686V29.313Z" fill="white"/>
<path d="M59.427 11.7482C59.427 13.0659 59.0284 14.0578 58.2323 14.7239C57.4949 15.3385 56.4469 15.6464 55.0895 15.6464C54.4165 15.6464 53.8406 15.6173 53.3584 15.5591V8.35929C53.9874 8.25853 54.6649 8.20703 55.3967 8.20703C56.6897 8.20703 57.6642 8.4858 58.3215 9.04333C59.0577 9.67364 59.427 10.5749 59.427 11.7482ZM58.1792 11.7806C58.1792 10.9264 57.9511 10.2715 57.4949 9.8147C57.0386 9.35904 56.3724 9.13066 55.4949 9.13066C55.1223 9.13066 54.805 9.15529 54.5419 9.20679V14.6803C54.6875 14.7026 54.954 14.7127 55.3414 14.7127C56.247 14.7127 56.946 14.4631 57.4384 13.9637C57.9307 13.4644 58.1792 12.7367 58.1792 11.7806Z" fill="white"/>
<path d="M66.0438 12.8979C66.0438 13.7096 65.8101 14.3746 65.3426 14.8963C64.8525 15.4326 64.2032 15.7001 63.3924 15.7001C62.6109 15.7001 61.9887 15.4438 61.5246 14.9288C61.0616 14.4149 60.8301 13.7667 60.8301 12.9852C60.8301 12.168 61.0683 11.4973 61.5472 10.9768C62.026 10.4562 62.6696 10.1953 63.4804 10.1953C64.2619 10.1953 64.8897 10.4517 65.3652 10.9656C65.8169 11.4649 66.0438 12.1097 66.0438 12.8979ZM64.8163 12.936C64.8163 12.449 64.7102 12.0314 64.499 11.6832C64.2506 11.2622 63.8971 11.0518 63.4375 11.0518C62.9621 11.0518 62.6007 11.2622 62.3523 11.6832C62.14 12.0314 62.035 12.4557 62.035 12.9572C62.035 13.4442 62.1411 13.8618 62.3523 14.21C62.6086 14.631 62.9655 14.8414 63.4262 14.8414C63.8779 14.8414 64.2325 14.6276 64.4877 14.1988C64.7068 13.8439 64.8163 13.423 64.8163 12.936Z" fill="white"/>
<path d="M74.9149 10.3047L73.2493 15.5822H72.1652L71.4752 13.2905C71.3002 12.7184 71.1579 12.1497 71.0473 11.5855H71.0258C70.923 12.1654 70.7807 12.733 70.5978 13.2905L69.8649 15.5822H68.7684L67.2021 10.3047H68.4184L69.0202 12.8136C69.1659 13.407 69.2856 13.9723 69.3816 14.5075H69.4031C69.4911 14.0664 69.6368 13.5044 69.8423 12.8248L70.5978 10.3058H71.5622L72.286 12.7711C72.4611 13.3722 72.6034 13.9511 72.7129 14.5086H72.7456C72.8258 13.9656 72.9467 13.3868 73.107 12.7711L73.7529 10.3058H74.9149V10.3047Z" fill="white"/>
<path d="M81.0499 15.5837H79.8664V12.5609C79.8664 11.6295 79.5096 11.1637 78.7936 11.1637C78.4424 11.1637 78.159 11.2913 77.9388 11.5477C77.7208 11.8041 77.6102 12.1064 77.6102 12.4523V15.5826H76.4267V11.8142C76.4267 11.3507 76.412 10.848 76.3838 10.3039H77.4238L77.4792 11.129H77.5119C77.6497 10.8726 77.8552 10.661 78.1251 10.492C78.4458 10.295 78.8049 10.1953 79.1979 10.1953C79.6948 10.1953 80.1081 10.3543 80.4367 10.6734C80.8455 11.0641 81.0499 11.6474 81.0499 12.4221V15.5837Z" fill="white"/>
<path d="M84.3132 15.5819H83.1309V7.88281H84.3132V15.5819Z" fill="white"/>
<path d="M91.2811 12.8979C91.2811 13.7096 91.0474 14.3746 90.5799 14.8963C90.0898 15.4326 89.4393 15.7001 88.6297 15.7001C87.8471 15.7001 87.2249 15.4438 86.7619 14.9288C86.2989 14.4149 86.0674 13.7667 86.0674 12.9852C86.0674 12.168 86.3057 11.4973 86.7845 10.9768C87.2633 10.4562 87.9069 10.1953 88.7166 10.1953C89.4992 10.1953 90.1259 10.4517 90.6025 10.9656C91.0542 11.4649 91.2811 12.1097 91.2811 12.8979ZM90.0525 12.936C90.0525 12.449 89.9464 12.0314 89.7352 11.6832C89.4879 11.2622 89.1333 11.0518 88.6748 11.0518C88.1983 11.0518 87.8369 11.2622 87.5896 11.6832C87.3773 12.0314 87.2723 12.4557 87.2723 12.9572C87.2723 13.4442 87.3784 13.8618 87.5896 14.21C87.846 14.631 88.2028 14.8414 88.6635 14.8414C89.1152 14.8414 89.4687 14.6276 89.7239 14.1988C89.9441 13.8439 90.0525 13.423 90.0525 12.936Z" fill="white"/>
<path d="M97.0089 15.5803H95.9463L95.8582 14.9724H95.8254C95.4618 15.4572 94.9435 15.7001 94.2704 15.7001C93.7679 15.7001 93.3614 15.54 93.0554 15.2221C92.7776 14.9332 92.6387 14.5739 92.6387 14.1473C92.6387 13.5025 92.9097 13.011 93.4551 12.6706C93.9994 12.3303 94.7651 12.1635 95.7509 12.1713V12.0728C95.7509 11.3776 95.3828 11.0305 94.6454 11.0305C94.1203 11.0305 93.6573 11.1615 93.2575 11.4212L93.017 10.651C93.5116 10.3476 94.1225 10.1953 94.843 10.1953C96.2342 10.1953 96.9321 10.923 96.9321 12.3784V14.322C96.9321 14.8493 96.9581 15.2691 97.0089 15.5803ZM95.7802 13.7667V12.9528C94.4748 12.9304 93.8221 13.2853 93.8221 14.0163C93.8221 14.2917 93.8967 14.4977 94.0491 14.6354C94.2016 14.7731 94.3958 14.8414 94.6273 14.8414C94.887 14.8414 95.1298 14.7597 95.3511 14.5974C95.5736 14.4339 95.7102 14.2268 95.7611 13.9727C95.7735 13.9156 95.7802 13.8462 95.7802 13.7667Z" fill="white"/>
<path d="M103.733 15.5819H102.683L102.627 14.7344H102.595C102.259 15.3793 101.688 15.7017 100.885 15.7017C100.244 15.7017 99.7095 15.4521 99.286 14.9528C98.8625 14.4534 98.6514 13.8052 98.6514 13.0092C98.6514 12.155 98.8806 11.4631 99.3413 10.9347C99.7874 10.4421 100.334 10.1958 100.984 10.1958C101.699 10.1958 102.199 10.4343 102.484 10.9123H102.507V7.88281H103.691V14.1601C103.691 14.674 103.705 15.1476 103.733 15.5819ZM102.507 13.3563V12.4763C102.507 12.3241 102.495 12.2009 102.474 12.1069C102.407 11.8247 102.264 11.5874 102.046 11.396C101.826 11.2045 101.56 11.1082 101.254 11.1082C100.813 11.1082 100.467 11.2818 100.213 11.6299C99.9613 11.9781 99.8337 12.4226 99.8337 12.9656C99.8337 13.4873 99.9545 13.9105 100.197 14.2362C100.454 14.5833 100.799 14.7568 101.232 14.7568C101.62 14.7568 101.931 14.6124 102.167 14.3224C102.395 14.0549 102.507 13.7324 102.507 13.3563Z" fill="white"/>
<path d="M113.854 12.8979C113.854 13.7096 113.621 14.3746 113.153 14.8963C112.663 15.4326 112.015 15.7001 111.203 15.7001C110.423 15.7001 109.8 15.4438 109.335 14.9288C108.872 14.4149 108.641 13.7667 108.641 12.9852C108.641 12.168 108.879 11.4973 109.358 10.9768C109.837 10.4562 110.48 10.1953 111.292 10.1953C112.072 10.1953 112.701 10.4517 113.176 10.9656C113.627 11.4649 113.854 12.1097 113.854 12.8979ZM112.628 12.936C112.628 12.449 112.522 12.0314 112.311 11.6832C112.061 11.2622 111.709 11.0518 111.248 11.0518C110.774 11.0518 110.412 11.2622 110.163 11.6832C109.951 12.0314 109.846 12.4557 109.846 12.9572C109.846 13.4442 109.952 13.8618 110.163 14.21C110.419 14.631 110.776 14.8414 111.237 14.8414C111.688 14.8414 112.044 14.6276 112.299 14.1988C112.517 13.8439 112.628 13.423 112.628 12.936Z" fill="white"/>
<path d="M120.218 15.5837H119.035V12.5609C119.035 11.6295 118.679 11.1637 117.961 11.1637C117.61 11.1637 117.327 11.2913 117.108 11.5477C116.889 11.8041 116.779 12.1064 116.779 12.4523V15.5826H115.595V11.8142C115.595 11.3507 115.581 10.848 115.553 10.3039H116.592L116.647 11.129H116.68C116.819 10.8726 117.024 10.661 117.293 10.492C117.615 10.295 117.973 10.1953 118.367 10.1953C118.863 10.1953 119.276 10.3543 119.604 10.6734C120.014 11.0641 120.218 11.6474 120.218 12.4221V15.5837Z" fill="white"/>
<path d="M128.183 11.1815H126.879V13.7452C126.879 14.3968 127.111 14.7226 127.569 14.7226C127.782 14.7226 127.958 14.7047 128.097 14.6677L128.127 15.5578C127.893 15.6451 127.586 15.6888 127.208 15.6888C126.74 15.6888 126.377 15.5477 126.114 15.2656C125.849 14.9835 125.718 14.5088 125.718 13.8426V11.1815H124.94V10.3026H125.718V9.33534L126.878 8.98828V10.3015H128.181V11.1815H128.183Z" fill="white"/>
<path d="M134.447 15.5819H133.263V12.5816C133.263 11.6355 132.906 11.162 132.191 11.162C131.642 11.162 131.267 11.4363 131.062 11.9848C131.027 12.1001 131.007 12.2412 131.007 12.4069V15.5808H129.824V7.88281H131.007V11.0634H131.029C131.402 10.4846 131.936 10.1958 132.628 10.1958C133.118 10.1958 133.524 10.3548 133.845 10.6738C134.246 11.0713 134.447 11.6624 134.447 12.4438V15.5819Z" fill="white"/>
<path d="M140.91 12.6942C140.91 12.9046 140.895 13.0815 140.866 13.226H137.317C137.333 13.7477 137.502 14.1451 137.831 14.4205C138.131 14.6668 138.519 14.79 138.993 14.79C139.518 14.79 139.997 14.7071 140.428 14.5403L140.613 15.3553C140.109 15.5725 139.515 15.6811 138.827 15.6811C138.003 15.6811 137.353 15.4404 136.884 14.959C136.411 14.4776 136.178 13.8316 136.178 13.0211C136.178 12.2251 136.396 11.5623 136.835 11.0339C137.293 10.4696 137.913 10.1875 138.696 10.1875C139.462 10.1875 140.043 10.4696 140.436 11.0339C140.753 11.4817 140.91 12.0359 140.91 12.6942ZM139.781 12.3908C139.79 12.0426 139.712 11.7426 139.552 11.4895C139.346 11.1637 139.034 11.0003 138.61 11.0003C138.224 11.0003 137.909 11.1593 137.668 11.4783C137.472 11.7325 137.356 12.0359 137.317 12.3908H139.781Z" fill="white"/>
</svg>
