<svg width="160" height="47" viewBox="0 0 160 47" fill="none" xmlns="http://www.w3.org/2000/svg">
<path d="M154.074 0H5.92593C2.65313 0 0 2.63033 0 5.875V41.125C0 44.3697 2.65313 47 5.92593 47H154.074C157.347 47 160 44.3697 160 41.125V5.875C160 2.63033 157.347 0 154.074 0Z" fill="black"/>
<path d="M38.0592 22.6939C38.0265 19.0856 41.0393 17.3301 41.1771 17.2484C39.4708 14.782 36.8261 14.445 35.8967 14.4182C33.6755 14.1864 31.5209 15.7359 30.3894 15.7359C29.2353 15.7359 27.4928 14.4405 25.6149 14.4786C23.1983 14.5156 20.9375 15.9027 19.6976 18.0567C17.1387 22.4487 19.0472 28.9029 21.4988 32.4529C22.7251 34.1916 24.1581 36.1329 26.0338 36.0646C27.8689 35.9896 28.5543 34.9048 30.7688 34.9048C32.9629 34.9048 33.6066 36.0646 35.5196 36.0209C37.489 35.9896 38.7289 34.2745 39.9123 32.5201C41.3296 30.5273 41.8987 28.5648 41.9213 28.464C41.875 28.4483 38.0965 27.0187 38.0592 22.6939Z" fill="white"/>
<path d="M34.4454 12.0817C35.4324 10.8581 36.1077 9.1933 35.9202 7.50391C34.4917 7.5666 32.7052 8.48351 31.6765 9.68031C30.7663 10.7349 29.9533 12.4635 30.1633 14.0891C31.768 14.2078 33.4155 13.2864 34.4454 12.0817Z" fill="white"/>
<path d="M64.6159 35.813H62.0513L60.6465 31.4367H55.7637L54.4255 35.813H51.9287L56.7664 20.9141H59.7544L64.6159 35.813ZM60.2231 29.6006L58.9527 25.7102C58.8183 25.3128 58.5665 24.3768 58.1949 22.9035H58.1498C58.0018 23.5372 57.7636 24.4731 57.4361 25.7102L56.1882 29.6006H60.2231Z" fill="white"/>
<path d="M77.0565 30.3077C77.0565 32.1348 76.5585 33.579 75.5625 34.6392C74.6704 35.583 73.5626 36.0543 72.2402 36.0543C70.8129 36.0543 69.7875 35.546 69.163 34.5295H69.1179V40.1888H66.7103V28.6049C66.7103 27.4562 66.6798 26.2773 66.6211 25.0682H68.7384L68.8728 26.771H68.918C69.7209 25.488 70.9394 24.8477 72.5745 24.8477C73.8528 24.8477 74.92 25.3481 75.7737 26.3501C76.6297 27.3532 77.0565 28.672 77.0565 30.3077ZM74.6038 30.395C74.6038 29.3494 74.3666 28.4873 73.8901 27.8089C73.3695 27.1013 72.6705 26.7475 71.7942 26.7475C71.2002 26.7475 70.6604 26.9446 70.1782 27.3331C69.6949 27.7249 69.3787 28.2365 69.2308 28.8702C69.1563 29.1658 69.119 29.4076 69.119 29.5979V31.3892C69.119 32.1706 69.3607 32.83 69.844 33.3685C70.3273 33.907 70.9552 34.1757 71.7276 34.1757C72.6344 34.1757 73.3401 33.8287 73.8449 33.1368C74.3508 32.4438 74.6038 31.5302 74.6038 30.395Z" fill="white"/>
<path d="M89.5202 30.3077C89.5202 32.1348 89.0222 33.579 88.0251 34.6392C87.1341 35.583 86.0263 36.0543 84.704 36.0543C83.2766 36.0543 82.2512 35.546 81.6279 34.5295H81.5827V40.1888H79.1752V28.6049C79.1752 27.4562 79.1447 26.2773 79.0859 25.0682H81.2033L81.3377 26.771H81.3828C82.1846 25.488 83.4031 24.8477 85.0394 24.8477C86.3165 24.8477 87.3837 25.3481 88.2397 26.3501C89.0922 27.3532 89.5202 28.672 89.5202 30.3077ZM87.0675 30.395C87.0675 29.3494 86.8292 28.4873 86.3527 27.8089C85.8321 27.1013 85.1353 26.7475 84.2579 26.7475C83.6628 26.7475 83.1241 26.9446 82.6408 27.3331C82.1575 27.7249 81.8424 28.2365 81.6945 28.8702C81.6211 29.1658 81.5827 29.4076 81.5827 29.5979V31.3892C81.5827 32.1706 81.8244 32.83 82.3054 33.3685C82.7888 33.9059 83.4166 34.1757 84.1913 34.1757C85.0981 34.1757 85.8039 33.8287 86.3086 33.1368C86.8145 32.4438 87.0675 31.5302 87.0675 30.395Z" fill="white"/>
<path d="M103.455 31.6344C103.455 32.9017 103.011 33.9328 102.12 34.7288C101.141 35.5987 99.7781 36.0331 98.0266 36.0331C96.4095 36.0331 95.1132 35.7241 94.1318 35.105L94.6897 33.1156C95.7467 33.7492 96.9064 34.0672 98.17 34.0672C99.0768 34.0672 99.7826 33.8634 100.29 33.4582C100.794 33.0529 101.046 32.5088 101.046 31.8303C101.046 31.2258 100.838 30.7164 100.422 30.3033C100.007 29.8902 99.3151 29.5062 98.3485 29.1513C95.7173 28.1784 94.4029 26.7532 94.4029 24.8791C94.4029 23.6543 94.8636 22.65 95.7862 21.8686C96.7054 21.086 97.9318 20.6953 99.4653 20.6953C100.833 20.6953 101.969 20.9315 102.876 21.4029L102.274 23.3486C101.427 22.8919 100.469 22.6635 99.3975 22.6635C98.5506 22.6635 97.8889 22.8706 97.4146 23.2826C97.0137 23.6509 96.8127 24.0999 96.8127 24.6316C96.8127 25.2205 97.0419 25.7075 97.5027 26.0904C97.9035 26.4442 98.6319 26.8271 99.6889 27.2402C100.982 27.7563 101.932 28.3597 102.543 29.0516C103.151 29.7413 103.455 30.6044 103.455 31.6344Z" fill="white"/>
<path d="M111.416 26.8587H108.762V32.0747C108.762 33.4014 109.23 34.0641 110.167 34.0641C110.597 34.0641 110.954 34.0272 111.236 33.9533L111.303 35.7659C110.829 35.9416 110.204 36.0301 109.431 36.0301C108.48 36.0301 107.737 35.7423 107.2 35.168C106.666 34.5926 106.397 33.6275 106.397 32.2717V26.8565H104.816V25.0652H106.397V23.0982L108.762 22.3906V25.0652H111.416V26.8587Z" fill="white"/>
<path d="M123.389 30.3541C123.389 32.0055 122.913 33.3612 121.962 34.4215C120.965 35.513 119.641 36.0571 117.991 36.0571C116.401 36.0571 115.136 35.5343 114.191 34.4886C113.247 33.443 112.775 32.123 112.775 30.5321C112.775 28.8674 113.261 27.5038 114.236 26.4436C115.208 25.3822 116.52 24.8516 118.17 24.8516C119.76 24.8516 121.039 25.3744 122.005 26.4212C122.928 27.4366 123.389 28.7476 123.389 30.3541ZM120.891 30.4314C120.891 29.4406 120.678 28.5909 120.245 27.8822C119.741 27.0246 119.019 26.5969 118.084 26.5969C117.116 26.5969 116.381 27.0257 115.876 27.8822C115.444 28.592 115.23 29.4551 115.23 30.4762C115.23 31.467 115.444 32.3167 115.876 33.0243C116.397 33.8818 117.124 34.3095 118.063 34.3095C118.982 34.3095 119.703 33.8729 120.224 33.0019C120.668 32.2798 120.891 31.4211 120.891 30.4314Z" fill="white"/>
<path d="M131.215 27.1674C130.976 27.1237 130.722 27.1013 130.456 27.1013C129.609 27.1013 128.954 27.4181 128.493 28.0529C128.092 28.6127 127.891 29.3202 127.891 30.1745V35.8114H125.485L125.507 28.4515C125.507 27.2133 125.477 26.0859 125.417 25.0693H127.514L127.602 27.1248H127.669C127.923 26.4184 128.324 25.8497 128.873 25.4231C129.409 25.0391 129.988 24.8477 130.613 24.8477C130.835 24.8477 131.036 24.8633 131.215 24.8913V27.1674Z" fill="white"/>
<path d="M141.982 29.9321C141.982 30.3598 141.954 30.7203 141.894 31.0147H134.671C134.699 32.0761 135.048 32.8877 135.719 33.4475C136.328 33.948 137.115 34.1987 138.081 34.1987C139.151 34.1987 140.126 34.0297 141.004 33.6905L141.381 35.3474C140.356 35.7907 139.145 36.0113 137.748 36.0113C136.068 36.0113 134.749 35.5209 133.789 34.5413C132.831 33.5617 132.352 32.2462 132.352 30.596C132.352 28.976 132.798 27.627 133.691 26.5511C134.626 25.4025 135.89 24.8281 137.479 24.8281C139.041 24.8281 140.224 25.4025 141.026 26.5511C141.662 27.4635 141.982 28.592 141.982 29.9321ZM139.686 29.313C139.702 28.6055 139.545 27.9942 139.219 27.4781C138.802 26.8142 138.162 26.4828 137.3 26.4828C136.513 26.4828 135.873 26.8064 135.384 27.4557C134.983 27.9718 134.744 28.5909 134.671 29.3119H139.686V29.313Z" fill="white"/>
<path d="M60.5596 17.2748H59.3073V15.4228H54.3032V17.2748H53.03L52.9883 14.3778H53.5988C53.9014 14.0881 54.1432 13.6673 54.3241 13.1155C54.505 12.5603 54.6215 11.9326 54.6737 11.2325L54.872 7.89062H59.6621V14.3778H60.6274L60.5596 17.2748ZM55.0911 14.3778H58.3472V8.94595H56.1295L56.0043 11.067C55.9104 12.4844 55.606 13.588 55.0911 14.3778Z" fill="white"/>
<path d="M61.7932 12.5723C61.7932 12.024 61.9027 11.5308 62.1219 11.0928C62.341 10.6514 62.6489 10.3134 63.0455 10.0789C63.442 9.84091 63.8978 9.72193 64.4126 9.72193C65.1744 9.72193 65.7919 9.96507 66.265 10.4513C66.7416 10.9376 66.999 11.5825 67.0373 12.3861L67.0425 12.681C67.0425 13.2328 66.9346 13.726 66.719 14.1605C66.5068 14.5951 66.2006 14.9313 65.8006 15.1693C65.404 15.4072 64.9448 15.5262 64.423 15.5262C63.6264 15.5262 62.9881 15.2641 62.508 14.7399C62.0314 14.2122 61.7932 13.5104 61.7932 12.6344V12.5723ZM63.0611 12.681C63.0611 13.2569 63.1811 13.7087 63.4212 14.0363C63.6612 14.3605 63.9952 14.5226 64.423 14.5226C64.8509 14.5226 65.1831 14.3571 65.4197 14.026C65.6597 13.6949 65.7797 13.2104 65.7797 12.5723C65.7797 12.0067 65.6562 11.5584 65.4092 11.2273C65.1657 10.8962 64.8335 10.7307 64.4126 10.7307C63.9986 10.7307 63.6699 10.8945 63.4264 11.2221C63.1829 11.5463 63.0611 12.0326 63.0611 12.681Z" fill="white"/>
<path d="M70.9685 14.5226C71.2851 14.5226 71.5477 14.4312 71.7564 14.2484C71.9651 14.0657 72.0765 13.8398 72.0904 13.5708H73.2853C73.2714 13.9191 73.1618 14.245 72.9566 14.5485C72.7513 14.8485 72.473 15.0865 72.1217 15.2624C71.7703 15.4383 71.3912 15.5262 70.9842 15.5262C70.1945 15.5262 69.5683 15.2727 69.1057 14.7658C68.643 14.2588 68.4117 13.5587 68.4117 12.6655V12.5361C68.4117 11.6843 68.6413 11.0031 69.1005 10.4927C69.5596 9.97886 70.1858 9.72193 70.9789 9.72193C71.6503 9.72193 72.1965 9.91678 72.6174 10.3065C73.0418 10.6928 73.2644 11.2015 73.2853 11.8326H72.0904C72.0765 11.5118 71.9651 11.248 71.7564 11.0411C71.5512 10.8342 71.2885 10.7307 70.9685 10.7307C70.558 10.7307 70.2415 10.879 70.0188 11.1756C69.7962 11.4687 69.6831 11.9154 69.6797 12.5154V12.7172C69.6797 13.3242 69.7892 13.7777 70.0084 14.0777C70.231 14.3743 70.5511 14.5226 70.9685 14.5226Z" fill="white"/>
<path d="M79.2203 10.8238H77.3887V15.4228H76.1208V10.8238H74.3101V9.82539H79.2203V10.8238Z" fill="white"/>
<path d="M82.6402 13.6225L83.7881 9.82539H85.1396L82.8958 16.2712C82.5514 17.2127 81.967 17.6834 81.1426 17.6834C80.9582 17.6834 80.7547 17.6524 80.5321 17.5903V16.6178L80.7721 16.6333C81.0921 16.6333 81.3322 16.5747 81.4922 16.4574C81.6557 16.3436 81.7844 16.1505 81.8783 15.878L82.061 15.3969L80.0781 9.82539H81.4452L82.6402 13.6225Z" fill="white"/>
<path d="M91.1946 15.4228H89.9266V10.8393H87.7246V15.4228H86.4566V9.82539H91.1946V15.4228Z" fill="white"/>
<path d="M97.86 15.4228H96.5921V13.1621H94.3953V15.4228H93.1273V9.82539H94.3953V12.1585H96.5921V9.82539H97.86V15.4228Z" fill="white"/>
<path d="M99.511 12.5723C99.511 12.024 99.6206 11.5308 99.8398 11.0928C100.059 10.6514 100.367 10.3134 100.763 10.0789C101.16 9.84091 101.616 9.72193 102.13 9.72193C102.892 9.72193 103.51 9.96507 103.983 10.4513C104.459 10.9376 104.717 11.5825 104.755 12.3861L104.76 12.681C104.76 13.2328 104.653 13.726 104.437 14.1605C104.225 14.5951 103.919 14.9313 103.518 15.1693C103.122 15.4072 102.663 15.5262 102.141 15.5262C101.344 15.5262 100.706 15.2641 100.226 14.7399C99.7493 14.2122 99.511 13.5104 99.511 12.6344V12.5723ZM100.779 12.681C100.779 13.2569 100.899 13.7087 101.139 14.0363C101.379 14.3605 101.713 14.5226 102.141 14.5226C102.569 14.5226 102.901 14.3571 103.138 14.026C103.378 13.6949 103.498 13.2104 103.498 12.5723C103.498 12.0067 103.374 11.5584 103.127 11.2273C102.884 10.8962 102.551 10.7307 102.13 10.7307C101.717 10.7307 101.388 10.8945 101.144 11.2221C100.901 11.5463 100.779 12.0326 100.779 12.681Z" fill="white"/>
<path d="M109.659 15.4228V9.82539H111.95C112.722 9.82539 113.31 9.95989 113.713 10.2289C114.117 10.4945 114.319 10.8773 114.319 11.3773C114.319 11.636 114.237 11.8688 114.073 12.0757C113.913 12.2792 113.675 12.4361 113.359 12.5465C113.727 12.6224 114.02 12.7758 114.235 13.0069C114.451 13.238 114.559 13.5104 114.559 13.8243C114.559 14.345 114.364 14.7416 113.974 15.0141C113.588 15.2865 113.032 15.4228 112.305 15.4228H109.659ZM110.927 13.0379V14.4295H112.315C112.965 14.4295 113.291 14.1984 113.291 13.7363C113.291 13.2707 112.96 13.0379 112.299 13.0379H110.927ZM110.927 12.1378H111.971C112.691 12.1378 113.051 11.9274 113.051 11.5067C113.051 11.0652 112.71 10.8376 112.028 10.8238H110.927V12.1378Z" fill="white"/>
</svg>
