<svg width="160" height="47" viewBox="0 0 160 47" fill="none" xmlns="http://www.w3.org/2000/svg">
<path d="M154.074 0H5.92593C2.65313 0 0 2.63033 0 5.875V41.125C0 44.3697 2.65313 47 5.92593 47H154.074C157.347 47 160 44.3697 160 41.125V5.875C160 2.63033 157.347 0 154.074 0Z" fill="black"/>
<path d="M80.7589 25.5559C79.7637 25.5605 78.7922 25.8573 77.967 26.4089C77.1417 26.9604 76.4998 27.7419 76.1222 28.6548C75.7446 29.5677 75.6482 30.571 75.8453 31.5382C76.0423 32.5053 76.5239 33.3929 77.2292 34.089C77.9346 34.785 78.8322 35.2583 79.8086 35.4491C80.785 35.6399 81.7966 35.5396 82.7156 35.161C83.6346 34.7823 84.4199 34.1422 84.9724 33.3215C85.5248 32.5008 85.8196 31.5363 85.8196 30.5496C85.8293 29.8892 85.7048 29.2336 85.4536 28.6219C85.2024 28.0101 84.8296 27.4547 84.3574 26.9888C83.8852 26.5229 83.3233 26.1559 82.7051 25.9097C82.0869 25.6635 81.425 25.5432 80.7589 25.5559ZM80.7589 33.5811C80.1468 33.6236 79.5361 33.4825 79.006 33.1762C78.4759 32.8699 78.051 32.4127 77.7865 31.8638C77.522 31.3149 77.4302 30.6999 77.523 30.0986C77.6157 29.4973 77.8888 28.9376 78.3067 28.4922C78.7246 28.0469 79.268 27.7364 79.8662 27.6013C80.4644 27.4661 81.0898 27.5125 81.661 27.7344C82.2323 27.9563 82.723 28.3435 83.0694 28.8455C83.4158 29.3476 83.6018 29.9414 83.6033 30.5496C83.6224 30.935 83.5635 31.3203 83.43 31.6828C83.2965 32.0453 83.0911 32.3776 82.826 32.6601C82.5609 32.9427 82.2414 33.1697 81.8864 33.3279C81.5314 33.4861 81.148 33.5722 80.7589 33.5811ZM69.7248 25.5559C68.7291 25.5582 67.7564 25.8531 66.9296 26.4032C66.1028 26.9533 65.4591 27.734 65.0797 28.6467C64.7002 29.5594 64.6022 30.5631 64.7979 31.531C64.9936 32.499 65.4742 33.3877 66.1791 34.0849C66.8841 34.7821 67.7816 35.2565 68.7583 35.4483C69.7351 35.64 70.7473 35.5404 71.667 35.1621C72.5867 34.7838 73.3727 34.1437 73.9256 33.3228C74.4786 32.5018 74.7737 31.5368 74.7737 30.5496C74.7834 29.8892 74.6589 29.2336 74.4077 28.6219C74.1565 28.0101 73.7837 27.4547 73.3115 26.9888C72.8393 26.5229 72.2774 26.1559 71.6591 25.9097C71.0409 25.6635 70.3791 25.5432 69.713 25.5559H69.7248ZM69.7248 33.5811C69.1125 33.626 68.5007 33.487 67.9691 33.1823C67.4376 32.8776 67.0108 32.4213 66.7445 31.8728C66.4782 31.3243 66.3846 30.709 66.4759 30.107C66.5672 29.5051 66.8392 28.9443 67.2564 28.4977C67.6737 28.0511 68.2169 27.7395 68.8154 27.6032C69.4138 27.467 70.0398 27.5126 70.6118 27.734C71.1837 27.9554 71.6752 28.3424 72.0222 28.8445C72.3693 29.3467 72.5557 29.9409 72.5574 30.5496C72.5765 30.935 72.5176 31.3203 72.3841 31.6828C72.2506 32.0453 72.0452 32.3776 71.7801 32.6601C71.515 32.9427 71.1955 33.1697 70.8405 33.3279C70.4855 33.4861 70.1021 33.5722 69.713 33.5811H69.7248ZM56.5811 27.0951V29.2101H61.7011C61.6208 30.2063 61.2032 31.1463 60.5159 31.8774C60.0037 32.3947 59.3879 32.7999 58.7082 33.067C58.0285 33.3341 57.2999 33.4572 56.5693 33.4284C55.0605 33.4284 53.6135 32.8342 52.5466 31.7765C51.4797 30.7188 50.8804 29.2842 50.8804 27.7884C50.8804 26.2926 51.4797 24.858 52.5466 23.8003C53.6135 22.7426 55.0605 22.1484 56.5693 22.1484C58.0126 22.125 59.4063 22.6701 60.4448 23.6641L61.95 22.1719C61.2489 21.4681 60.4125 20.911 59.4903 20.5335C58.5681 20.1561 57.5788 19.966 56.5811 19.9746C55.5275 19.934 54.4764 20.1046 53.4909 20.4763C52.5054 20.848 51.6057 21.4131 50.8457 22.1378C50.0858 22.8625 49.4812 23.7318 49.0682 24.6937C48.6552 25.6555 48.4424 26.6901 48.4424 27.7355C48.4424 28.7809 48.6552 29.8155 49.0682 30.7773C49.4812 31.7392 50.0858 32.6085 50.8457 33.3332C51.6057 34.0579 52.5054 34.623 53.4909 34.9947C54.4764 35.3664 55.5275 35.537 56.5811 35.4964C57.5956 35.5418 58.6081 35.3713 59.5505 34.9964C60.493 34.6214 61.3435 34.0507 62.0448 33.3226C63.2865 31.9701 63.9495 30.1921 63.8937 28.3641C63.8975 27.9188 63.8578 27.4741 63.7752 27.0364L56.5811 27.0951ZM110.282 28.7401C109.973 27.8386 109.395 27.0514 108.624 26.4828C107.854 25.9141 106.928 25.5909 105.968 25.5559C105.319 25.5546 104.678 25.6852 104.082 25.9396C103.487 26.1939 102.951 26.5666 102.506 27.0347C102.062 27.5027 101.719 28.0561 101.499 28.6607C101.279 29.2653 101.187 29.9082 101.227 30.5496C101.213 31.2063 101.332 31.8592 101.578 32.4692C101.823 33.0792 102.191 33.6339 102.658 34.1C103.124 34.5661 103.681 34.9342 104.295 35.1822C104.908 35.4302 105.566 35.553 106.229 35.5434C107.058 35.5478 107.875 35.3483 108.607 34.9628C109.339 34.5773 109.964 34.0178 110.424 33.3344L108.706 32.1594C108.449 32.5833 108.086 32.9339 107.652 33.177C107.218 33.42 106.727 33.5471 106.229 33.5459C105.715 33.5653 105.208 33.4311 104.772 33.1608C104.337 32.8904 103.994 32.4965 103.787 32.0301L110.531 29.2689L110.282 28.7401ZM103.408 30.4086C103.384 30.0452 103.433 29.6807 103.553 29.3364C103.673 28.9921 103.861 28.675 104.106 28.4036C104.351 28.1322 104.648 27.9121 104.98 27.756C105.312 27.5999 105.672 27.511 106.039 27.4946C106.421 27.4697 106.802 27.5566 107.135 27.7446C107.468 27.9326 107.738 28.2134 107.911 28.5521L103.408 30.4086ZM97.9322 35.2496H100.149V20.5621H97.9322V35.2496ZM94.3056 26.6721H94.2226C93.8886 26.3019 93.4794 26.0058 93.0219 25.8033C92.5644 25.6008 92.0688 25.4965 91.5678 25.4971C90.2726 25.5594 89.0512 26.1133 88.1568 27.0441C87.2624 27.9749 86.7634 29.2112 86.7634 30.4968C86.7634 31.7823 87.2624 33.0186 88.1568 33.9494C89.0512 34.8802 90.2726 35.4341 91.5678 35.4964C92.07 35.5047 92.568 35.4039 93.0267 35.2009C93.4854 34.9979 93.8936 34.6977 94.2226 34.3214H94.2937V35.0381C94.2937 36.9534 93.2626 37.9756 91.6033 37.9756C91.0507 37.9628 90.5144 37.7872 90.0628 37.4713C89.6111 37.1553 89.2645 36.7133 89.067 36.2014L87.1352 37.0004C87.4988 37.8773 88.1185 38.6266 88.9146 39.1521C89.7107 39.6776 90.6469 39.9553 91.6033 39.9496C94.1989 39.9496 96.3441 38.4339 96.3441 34.7444V25.8496H94.3056V26.6721ZM91.7693 33.5811C91.0048 33.5143 90.2932 33.166 89.7749 32.6049C89.2566 32.0438 88.9691 31.3105 88.9691 30.5496C88.9691 29.7888 89.2566 29.0555 89.7749 28.4943C90.2932 27.9332 91.0048 27.5849 91.7693 27.5181C92.1483 27.5374 92.5196 27.6317 92.8614 27.7955C93.2031 27.9592 93.5083 28.1891 93.759 28.4716C94.0097 28.7541 94.2009 29.0835 94.3212 29.4404C94.4415 29.7973 94.4886 30.1744 94.4596 30.5496C94.492 30.9264 94.4469 31.3058 94.3271 31.6649C94.2073 32.0239 94.0153 32.3551 93.7627 32.6385C93.5101 32.9219 93.2022 33.1515 92.8575 33.3136C92.5128 33.4756 92.1386 33.5666 91.7574 33.5811H91.7693ZM120.664 20.5621H115.366V35.2496H117.583V29.6801H120.676C121.308 29.7251 121.942 29.6406 122.539 29.4319C123.136 29.2232 123.684 28.8947 124.147 28.4669C124.611 28.0392 124.981 27.5213 125.233 26.9457C125.486 26.3701 125.617 25.749 125.617 25.1211C125.617 24.4933 125.486 23.8722 125.233 23.2965C124.981 22.7209 124.611 22.2031 124.147 21.7753C123.684 21.3476 123.136 21.0191 122.539 20.8104C121.942 20.6016 121.308 20.5171 120.676 20.5621H120.664ZM120.664 27.6121H117.571V22.6066H120.711C121.386 22.6066 122.032 22.8722 122.509 23.3448C122.986 23.8175 123.254 24.4586 123.254 25.127C123.254 25.7954 122.986 26.4365 122.509 26.9092C122.032 27.3818 121.386 27.6474 120.711 27.6474L120.664 27.6121ZM134.329 25.4971C133.522 25.4493 132.719 25.6362 132.018 26.035C131.317 26.4337 130.748 27.0268 130.383 27.7414L132.35 28.5521C132.544 28.1977 132.838 27.9068 133.195 27.7149C133.553 27.523 133.959 27.4383 134.365 27.4711C134.646 27.4386 134.931 27.4618 135.203 27.5397C135.476 27.6175 135.729 27.7482 135.95 27.9243C136.171 28.1004 136.354 28.3183 136.489 28.5653C136.623 28.8123 136.707 29.0834 136.735 29.3629V29.5156C136.023 29.142 135.23 28.9482 134.424 28.9516C132.303 28.9516 130.157 30.1266 130.157 32.2534C130.178 32.7069 130.291 33.1516 130.488 33.5612C130.685 33.9709 130.963 34.3371 131.306 34.6384C131.649 34.9396 132.049 35.1697 132.482 35.3151C132.916 35.4604 133.375 35.5181 133.831 35.4846C134.39 35.5244 134.948 35.4144 135.449 35.1663C135.949 34.9182 136.373 34.5411 136.676 34.0746H136.747V35.2496H138.88V29.5979C138.88 27.0246 136.913 25.5324 134.389 25.5324L134.329 25.4971ZM134.057 33.5459C133.334 33.5459 132.326 33.1816 132.326 32.3004C132.326 31.1254 133.583 30.7376 134.697 30.7376C135.401 30.7204 136.097 30.8908 136.711 31.2311C136.637 31.8673 136.334 32.4554 135.857 32.8873C135.38 33.3191 134.762 33.5655 134.116 33.5811L134.057 33.5459ZM146.655 25.8496L144.119 32.2181H144.048L141.417 25.8496H139.046L142.993 34.7561L140.741 39.7029H143.052L149.12 25.8496H146.655ZM126.732 35.2496H128.949V20.5621H126.732V35.2496Z" fill="white"/>
<path d="M49.9086 16.7688H49.0316V14.4188H49.7783C50.1187 14.0611 50.3758 13.6337 50.5315 13.1667C50.6871 12.6998 50.7375 12.2046 50.679 11.7163V8.22651H55.4198V14.407H56.2138V16.757H55.3368V15.2765H49.9086V16.7688ZM51.5561 11.7515C51.6113 12.6993 51.3758 13.6415 50.8805 14.454H54.4361V9.09601H51.5561V11.7515ZM63.3012 14.36C62.6084 15.0431 61.671 15.4265 60.6938 15.4265C59.7167 15.4265 58.7793 15.0431 58.0864 14.36C57.413 13.6533 57.0378 12.7179 57.0378 11.7456C57.0378 10.7734 57.413 9.838 58.0864 9.13126C58.4279 8.79021 58.8341 8.51953 59.2816 8.33481C59.7291 8.1501 60.2091 8.055 60.6938 8.055C61.1786 8.055 61.6585 8.1501 62.106 8.33481C62.5535 8.51953 62.9597 8.79021 63.3012 9.13126C63.9774 9.83665 64.3544 10.7726 64.3544 11.7456C64.3544 12.7187 63.9774 13.6546 63.3012 14.36ZM58.762 13.7725C59.2751 14.2791 59.9697 14.5635 60.6938 14.5635C61.4179 14.5635 62.1126 14.2791 62.6257 13.7725C63.132 13.2191 63.4125 12.4987 63.4125 11.7515C63.4125 11.0043 63.132 10.2839 62.6257 9.73051C62.1126 9.22394 61.4179 8.93953 60.6938 8.93953C59.9697 8.93953 59.2751 9.22394 58.762 9.73051C58.2556 10.2839 57.9751 11.0043 57.9751 11.7515C57.9751 12.4987 58.2556 13.2191 58.762 13.7725ZM68.9546 15.4293C68.4653 15.4389 67.9791 15.3503 67.5253 15.1687C67.0715 14.9872 66.6594 14.7164 66.314 14.3728C65.9685 14.0292 65.6967 13.6198 65.515 13.1693C65.3333 12.7188 65.2455 12.2365 65.2568 11.7515C65.2455 11.2665 65.3333 10.7842 65.515 10.3337C65.6967 9.88321 65.9685 9.47383 66.314 9.13022C66.6594 8.78661 67.0715 8.51587 67.5253 8.33431C67.9791 8.15275 68.4653 8.06412 68.9546 8.07376C69.4505 8.06159 69.9427 8.16099 70.3943 8.3645C70.8459 8.56801 71.2451 8.87033 71.562 9.24876L70.922 9.85976C70.6879 9.56513 70.3861 9.33032 70.0417 9.17497C69.6974 9.01961 69.3206 8.94822 68.9427 8.96676C68.5789 8.95739 68.217 9.02128 67.8788 9.15458C67.5407 9.28787 67.2333 9.4878 66.9753 9.74226C66.4614 10.299 66.1764 11.0263 66.1764 11.7809C66.1764 12.5355 66.4614 13.2628 66.9753 13.8195C67.2333 14.074 67.5407 14.2739 67.8788 14.4072C68.217 14.5405 68.5789 14.6044 68.9427 14.595C69.3599 14.5913 69.771 14.4956 70.1461 14.3147C70.5213 14.1338 70.8511 13.8723 71.1116 13.5493L71.7516 14.1838C71.429 14.5717 71.0244 14.8845 70.5664 15.1003C70.0605 15.3274 69.5098 15.4398 68.9546 15.4293ZM75.4731 15.2765H74.5605V9.09601H72.5694V8.22651H77.4523V9.09601H75.4731V15.2765ZM83.7338 8.22651L81.0435 14.172C80.9358 14.5237 80.7206 14.8336 80.4276 15.0588C80.1346 15.284 79.7783 15.4135 79.4079 15.4293C79.1629 15.4262 78.9211 15.3742 78.6968 15.2765L78.9338 14.4423C79.0779 14.5254 79.2412 14.57 79.4079 14.5715C79.5821 14.5845 79.7561 14.5435 79.9057 14.454C80.0485 14.3342 80.1585 14.1806 80.2257 14.0075L80.4864 13.4435L78.1161 8.23826H79.1946L80.9486 12.2803L82.6553 8.22651H83.7338ZM84.7649 15.2765V8.22651H89.9086V15.2765H88.996V9.09601H85.6775V15.2765H84.7649ZM91.5323 15.2765V8.22651H92.4449V11.2463H96.0005V8.22651H96.9131V15.2765H96.0005V12.0923H92.4449V15.2765H91.5323ZM104.368 14.36C103.675 15.0431 102.738 15.4265 101.76 15.4265C100.783 15.4265 99.846 15.0431 99.1531 14.36C98.4796 13.6533 98.1044 12.7179 98.1044 11.7456C98.1044 10.7734 98.4796 9.838 99.1531 9.13126C99.4946 8.79021 99.9008 8.51953 100.348 8.33481C100.796 8.1501 101.276 8.055 101.76 8.055C102.245 8.055 102.725 8.1501 103.173 8.33481C103.62 8.51953 104.026 8.79021 104.368 9.13126C105.044 9.83665 105.421 10.7726 105.421 11.7456C105.421 12.7187 105.044 13.6546 104.368 14.36ZM99.8287 13.7725C100.342 14.2791 101.036 14.5635 101.76 14.5635C102.485 14.5635 103.179 14.2791 103.692 13.7725C104.199 13.2191 104.479 12.4987 104.479 11.7515C104.479 11.0043 104.199 10.2839 103.692 9.73051C103.179 9.22394 102.485 8.93953 101.76 8.93953C101.036 8.93953 100.342 9.22394 99.8287 9.73051C99.3223 10.2839 99.0418 11.0043 99.0418 11.7515C99.0418 12.4987 99.3223 13.2191 99.8287 13.7725ZM109.144 15.2765V8.22651H111.716C112.25 8.21651 112.768 8.40997 113.162 8.76701C113.36 8.9374 113.518 9.14886 113.624 9.38642C113.731 9.62398 113.783 9.88184 113.778 10.1418C113.784 10.455 113.693 10.7624 113.518 11.023C113.344 11.2761 113.101 11.4757 112.818 11.5988C113.162 11.7116 113.464 11.9245 113.683 12.2098C113.911 12.4976 114.033 12.8543 114.027 13.2203C114.033 13.4911 113.979 13.76 113.868 14.0078C113.758 14.2555 113.593 14.4761 113.387 14.6538C112.974 15.0312 112.431 15.2372 111.87 15.2295L109.144 15.2765ZM110.057 11.2463H111.716C111.871 11.2527 112.026 11.2255 112.169 11.1667C112.312 11.1078 112.441 11.0187 112.546 10.9055C112.651 10.8112 112.735 10.6969 112.795 10.5694C112.854 10.4419 112.887 10.3039 112.891 10.1635C112.896 10.0231 112.872 9.88332 112.82 9.75241C112.769 9.62149 112.692 9.50215 112.593 9.40151C112.494 9.29044 112.372 9.20234 112.234 9.14345C112.097 9.08456 111.948 9.05633 111.799 9.06076H110.104L110.057 11.2463ZM110.057 14.407H111.894C112.054 14.4124 112.214 14.3825 112.362 14.3195C112.509 14.2565 112.641 14.162 112.747 14.0428C112.956 13.8279 113.075 13.5422 113.079 13.2438C113.079 12.9321 112.954 12.6333 112.732 12.4129C112.51 12.1926 112.208 12.0688 111.894 12.0688H110.092L110.057 14.407Z" fill="white"/>
<path fill-rule="evenodd" clip-rule="evenodd" d="M60.6938 8.1725C60.2247 8.1725 59.7603 8.26453 59.3272 8.44329C58.8946 8.62186 58.5018 8.88345 58.1716 9.21301C57.5195 9.89781 57.1563 10.8039 57.1563 11.7456C57.1563 12.6873 57.5194 13.5932 58.1713 14.278C58.8418 14.9384 59.7486 15.309 60.6938 15.309C61.6391 15.309 62.5459 14.9383 63.2165 14.2779C63.8709 13.5945 64.2358 12.688 64.2358 11.7456C64.2358 10.8031 63.8708 9.89657 63.2162 9.21313C62.8859 8.88351 62.4931 8.62188 62.0605 8.44329C61.6274 8.26453 61.1629 8.1725 60.6938 8.1725ZM59.2361 8.22634C59.698 8.03566 60.1935 7.9375 60.6938 7.9375C61.1942 7.9375 61.6896 8.03566 62.1516 8.22634C62.6135 8.41701 63.0328 8.69643 63.3853 9.04848L63.3872 9.0503C64.0842 9.77753 64.4729 10.7424 64.4729 11.7456C64.4729 12.7488 64.0842 13.7137 63.3871 14.441L63.3848 14.4434C62.6698 15.1483 61.7023 15.544 60.6938 15.544C59.6854 15.544 58.7179 15.1483 58.0028 14.4433L58.0002 14.4407C57.306 13.7122 56.9193 12.7479 56.9193 11.7456C56.9193 10.7434 57.306 9.77912 58.0003 9.05057L58.0023 9.04845C58.3548 8.6964 58.7741 8.41701 59.2361 8.22634ZM101.76 8.1725C101.291 8.1725 100.827 8.26453 100.394 8.44329C99.9613 8.62185 99.5686 8.88342 99.2383 9.21295C98.5862 9.89776 98.223 10.8039 98.223 11.7456C98.223 12.6873 98.5861 13.5932 99.238 14.278C99.9085 14.9384 100.815 15.309 101.76 15.309C102.706 15.309 103.613 14.9383 104.283 14.2778C104.938 13.5944 105.303 12.688 105.303 11.7456C105.303 10.8031 104.938 9.8966 104.283 9.21316C103.953 8.88353 103.56 8.62188 103.127 8.44329C102.694 8.26453 102.23 8.1725 101.76 8.1725ZM100.303 8.22634C100.765 8.03566 101.26 7.9375 101.76 7.9375C102.261 7.9375 102.756 8.03566 103.218 8.22634C103.68 8.41701 104.099 8.69643 104.452 9.04848L104.454 9.0503C105.151 9.77755 105.54 10.7424 105.54 11.7456C105.54 12.7488 105.151 13.7137 104.454 14.441L104.452 14.4434C103.736 15.1483 102.769 15.544 101.76 15.544C100.752 15.544 99.7846 15.1483 99.0695 14.4433L99.0669 14.4407C98.3727 13.7122 97.9859 12.7479 97.9859 11.7456C97.9859 10.7434 98.3727 9.77912 99.0669 9.05057L99.069 9.04845C99.4215 8.6964 99.8408 8.41701 100.303 8.22634ZM70.3453 8.47147C69.91 8.2753 69.4355 8.17949 68.9575 8.19123L68.9522 8.19136C68.4789 8.18203 68.0086 8.26764 67.5696 8.44327C67.1307 8.6189 66.7321 8.88079 66.3979 9.21317C66.0637 9.54555 65.8008 9.94155 65.6251 10.3773C65.4493 10.8131 65.3644 11.2796 65.3753 11.7488L65.3754 11.7542C65.3645 12.2234 65.4493 12.6899 65.6251 13.1257C65.8008 13.5615 66.0637 13.9575 66.3979 14.2899C66.7321 14.6222 67.1307 14.8841 67.5696 15.0598C68.0086 15.2354 68.4789 15.3211 68.9522 15.3118L68.9546 15.4293L68.9568 15.3118C69.4941 15.322 70.0269 15.2133 70.5165 14.9937C70.9261 14.8006 71.2914 14.5271 71.5904 14.1902L71.1193 13.7231C70.8625 14.0137 70.5493 14.2509 70.198 14.4203C69.8073 14.6087 69.3792 14.7085 68.9448 14.7125C68.5653 14.7221 68.1878 14.6554 67.835 14.5164C67.482 14.3772 67.1611 14.1685 66.8917 13.9028L66.8878 13.8989C66.3539 13.3205 66.0579 12.5649 66.0579 11.7809C66.0579 10.9969 66.354 10.2413 66.8879 9.66294L66.8916 9.65887C67.161 9.3932 67.482 9.18456 67.835 9.04539C68.1867 8.90677 68.563 8.84004 68.9413 8.84919C69.3366 8.8305 69.7306 8.90551 70.0908 9.06802C70.4127 9.21323 70.6992 9.42456 70.9316 9.68746L71.3991 9.24115C71.106 8.91488 70.7472 8.65258 70.3453 8.47147ZM68.9546 15.5468C68.4501 15.5564 67.9489 15.4649 67.4809 15.2777C67.0123 15.0902 66.5868 14.8106 66.23 14.4558C65.8732 14.1009 65.5926 13.6782 65.405 13.2129C65.2177 12.7486 65.127 12.2515 65.1382 11.7515C65.127 11.2515 65.2177 10.7545 65.405 10.2901C65.5926 9.82487 65.8732 9.40211 66.23 9.04727C66.5868 8.69243 67.0123 8.41284 67.4809 8.22535C67.9488 8.03818 68.4499 7.94665 68.9543 7.95623C69.4672 7.94404 69.9763 8.04704 70.4434 8.25753C70.9113 8.46839 71.3249 8.78163 71.6532 9.17372L71.7235 9.2577L70.9099 10.0344L70.8289 9.93247C70.6065 9.65256 70.3198 9.4295 69.9926 9.28191C69.6655 9.13433 69.3075 9.0665 68.9486 9.08412L68.9396 9.08456C68.5919 9.0756 68.2459 9.13634 67.9226 9.26376C67.6002 9.39085 67.3071 9.58129 67.0609 9.82362C66.5682 10.3584 66.295 11.0565 66.295 11.7809C66.295 12.5052 66.5682 13.2034 67.0609 13.7382C67.3071 13.9805 67.6002 14.1709 67.9226 14.298C68.2459 14.4254 68.5919 14.4865 68.9396 14.4776L68.9417 14.4775C69.3412 14.474 69.735 14.3823 70.0943 14.209C70.4536 14.0357 70.7695 13.7853 71.019 13.4759L71.1017 13.3733L71.9115 14.1761L71.8431 14.2585C71.5094 14.6597 71.091 14.9833 70.6173 15.2064L70.6153 15.2073C70.0941 15.4414 69.5267 15.5573 68.9546 15.5468ZM113.082 8.85378C112.71 8.51702 112.222 8.33456 111.718 8.34399L111.716 8.34401H109.263V15.1569L111.868 15.112L111.872 15.112C112.403 15.1193 112.916 14.9244 113.307 14.5674L113.309 14.565C113.503 14.3986 113.656 14.1922 113.76 13.9602C113.864 13.7282 113.914 13.4765 113.909 13.2229L113.909 13.2185C113.914 12.8795 113.801 12.549 113.59 12.2823L113.589 12.2811C113.384 12.0146 113.102 11.8157 112.781 11.7103L112.488 11.6141L112.771 11.4912C113.033 11.377 113.258 11.1921 113.419 10.9574C113.581 10.7168 113.665 10.433 113.66 10.1438V10.1395C113.665 9.89675 113.616 9.65597 113.516 9.43414C113.417 9.21231 113.269 9.01486 113.084 8.85575L113.082 8.85378ZM113.241 8.67929C112.824 8.30282 112.278 8.09875 111.715 8.10901H109.026V15.3961L111.868 15.347L111.87 15.347C112.461 15.3547 113.032 15.1379 113.466 14.7413C113.685 14.5525 113.859 14.3183 113.977 14.0553C114.094 13.7925 114.152 13.5072 114.146 13.2199L114.146 13.222L114.027 13.2203L114.146 13.2177L114.146 13.2199C114.151 12.828 114.021 12.4462 113.777 12.1378C113.596 11.9029 113.363 11.714 113.097 11.5849C113.301 11.4572 113.478 11.2888 113.615 11.0892L113.616 11.0882C113.804 10.8083 113.902 10.4782 113.897 10.1418L113.897 10.1441L113.778 10.1418L113.897 10.1397L113.897 10.1418C113.902 9.86547 113.846 9.59132 113.733 9.3387C113.619 9.08588 113.451 8.86079 113.241 8.67929ZM50.5605 8.10901H55.5383V14.2895H56.3323V16.8745H55.2183V15.394H50.0272V16.8863H48.9131V14.3013H49.7266C50.038 13.9637 50.2741 13.5646 50.419 13.1299C50.5691 12.6792 50.6177 12.2014 50.5613 11.7301L50.5605 11.7232V8.10901ZM50.7975 8.34401V11.7094C50.8567 12.2126 50.8044 12.7225 50.644 13.2036C50.4829 13.6869 50.2168 14.1292 49.8645 14.4994L49.8294 14.5363H49.1501V16.6513H49.7901V15.159H55.4553V16.6395H56.0953V14.5245H55.3012V8.34401H50.7975ZM72.4509 8.10901H77.5709V9.21351H75.5916V15.394H74.442V9.21351H72.4509V8.10901ZM72.6879 8.34401V8.97851H74.679V15.159H75.3546V8.97851H77.3338V8.34401H72.6879ZM82.5763 8.10901H83.9169L81.1546 14.2134C81.0391 14.5854 80.8106 14.9131 80.5002 15.1517C80.1878 15.3918 79.8079 15.5298 79.413 15.5467L79.4064 15.5469C79.1455 15.5436 78.888 15.4881 78.6491 15.3841L78.5548 15.343L78.8612 14.2644L78.9935 14.3407C79.1197 14.4136 79.2629 14.4527 79.409 14.454L79.4168 14.4541C79.5634 14.465 79.7097 14.4317 79.8364 14.3582C79.9604 14.252 80.0562 14.1171 80.1151 13.9653L80.1177 13.9585L80.3562 13.4431L77.9325 8.12076H79.2726L80.947 11.9791L82.5763 8.10901ZM82.7343 8.34401L80.9503 12.5814L79.1165 8.35576H78.2996L80.6166 13.4439L80.3349 14.0532C80.2605 14.2433 80.1393 14.4119 79.9823 14.5437L79.975 14.5498L79.9669 14.5546C79.7973 14.656 79.6003 14.7029 79.4029 14.689C79.2674 14.6872 79.134 14.6602 79.0094 14.6098L78.8397 15.2071C79.0209 15.2734 79.2124 15.3089 79.4061 15.3117C79.7508 15.2963 80.0823 15.1756 80.355 14.9659C80.6285 14.7556 80.8295 14.4663 80.93 14.1379L80.9322 14.1307L83.5508 8.34401H82.7343ZM84.6464 8.10901H90.0272V15.394H88.8775V9.21351H85.7961V15.394H84.6464V8.10901ZM84.8835 8.34401V15.159H85.559V8.97851H89.1146V15.159H89.7901V8.34401H84.8835ZM91.4138 8.10901H92.5635V11.1288H95.882V8.10901H97.0316V15.394H95.882V12.2098H92.5635V15.394H91.4138V8.10901ZM91.6509 8.34401V15.159H92.3264V11.9748H96.119V15.159H96.7946V8.34401H96.119V11.3638H92.3264V8.34401H91.6509ZM58.6783 9.64725C59.2137 9.11876 59.9384 8.82203 60.6938 8.82203C61.4493 8.82203 62.174 9.11876 62.7093 9.64725L62.7136 9.65147C63.2397 10.2265 63.531 10.9752 63.531 11.7515C63.531 12.5279 63.2396 13.2764 62.7135 13.8515L62.7094 13.8559C62.1741 14.3844 61.4493 14.681 60.6938 14.681C59.9384 14.681 59.2137 14.3843 58.6783 13.8558L58.762 13.7725L58.6742 13.8515C58.1481 13.2764 57.8566 12.5279 57.8566 11.7515C57.8566 10.9752 58.1481 10.2266 58.6742 9.65157L58.6783 9.64725ZM58.8477 13.6914C59.3384 14.1747 60.0021 14.446 60.6938 14.446C61.3856 14.446 62.0492 14.1747 62.5399 13.6914C63.0252 13.1599 63.294 12.4685 63.294 11.7515C63.294 11.0345 63.0252 10.3432 62.5399 9.81167C62.0492 9.32835 61.3856 9.05703 60.6938 9.05703C60.0021 9.05703 59.3384 9.32835 58.8477 9.81167C58.3624 10.3432 58.0936 11.0345 58.0936 11.7515C58.0936 12.4685 58.3624 13.1599 58.8477 13.6914ZM99.745 9.64725C100.28 9.11876 101.005 8.82203 101.76 8.82203C102.516 8.82203 103.241 9.11876 103.776 9.64725L103.78 9.65147C104.306 10.2265 104.598 10.9752 104.598 11.7515C104.598 12.5279 104.306 13.2764 103.78 13.8515L103.776 13.8559C103.241 14.3844 102.516 14.681 101.76 14.681C101.005 14.681 100.28 14.3843 99.745 13.8558L99.8287 13.7725L99.7409 13.8515C99.2147 13.2764 98.9233 12.5279 98.9233 11.7515C98.9233 10.9752 99.2147 10.2266 99.7409 9.65157L99.745 9.64725ZM99.9144 13.6914C100.405 14.1747 101.069 14.446 101.76 14.446C102.452 14.446 103.116 14.1747 103.607 13.6914C104.092 13.1599 104.361 12.4685 104.361 11.7515C104.361 11.0345 104.092 10.3432 103.607 9.81166C103.116 9.32834 102.452 9.05703 101.76 9.05703C101.069 9.05703 100.405 9.32834 99.9144 9.81166C99.4291 10.3432 99.1603 11.0345 99.1603 11.7515C99.1603 12.4685 99.4291 13.1599 99.9144 13.6914ZM111.797 8.94326C111.964 8.9386 112.129 8.97012 112.281 9.03562C112.434 9.10099 112.57 9.19862 112.68 9.32164C112.789 9.43316 112.874 9.56517 112.931 9.70989C112.988 9.85551 113.015 10.011 113.01 10.1672C113.005 10.3233 112.968 10.4768 112.902 10.6187C112.837 10.7589 112.744 10.8847 112.629 10.989C112.513 11.1129 112.372 11.2105 112.214 11.2752C112.056 11.3403 111.885 11.3705 111.714 11.3638H109.936L109.988 8.94326H111.797ZM112.187 9.25128C112.066 9.19924 111.935 9.17429 111.803 9.17821L111.799 9.17826H110.22L110.178 11.1288H111.721C111.859 11.1345 111.996 11.1104 112.123 11.0581C112.251 11.0058 112.365 10.9266 112.458 10.826L112.462 10.8221L112.466 10.8185C112.559 10.7347 112.634 10.6333 112.687 10.5201C112.74 10.4069 112.769 10.2844 112.773 10.1598C112.777 10.0352 112.755 9.91113 112.71 9.79493C112.664 9.67872 112.596 9.57279 112.508 9.48346L112.504 9.47943C112.417 9.38127 112.309 9.30332 112.187 9.25128ZM51.4375 8.97851H54.5546V14.5715H50.6704L50.7791 14.3932C51.262 13.601 51.4916 12.6824 51.4377 11.7583L51.4373 11.7515L51.4375 8.97851ZM51.6746 9.21351V11.7481C51.7265 12.6499 51.5217 13.5466 51.0854 14.3365H54.3175V9.21351H51.6746ZM109.976 11.9513H111.894C112.24 11.9513 112.571 12.0874 112.816 12.3298C113.06 12.5722 113.198 12.901 113.198 13.2438L113.198 13.2454C113.193 13.5729 113.063 13.8864 112.834 14.1226C112.717 14.2539 112.571 14.358 112.408 14.4274C112.246 14.497 112.069 14.5301 111.892 14.5245H109.936L109.976 11.9513ZM110.209 12.1863L110.177 14.2895H111.898C112.041 14.2943 112.183 14.2677 112.315 14.2116C112.446 14.1555 112.564 14.0712 112.658 13.9649L112.662 13.9611C112.85 13.7679 112.956 13.5112 112.961 13.2429C112.96 12.9628 112.848 12.6941 112.648 12.496C112.448 12.2977 112.177 12.1863 111.894 12.1863H110.209Z" fill="white"/>
<path d="M12.3737 8.8596C11.9874 9.31915 11.7924 9.90745 11.8285 10.5046V36.4956C11.7924 37.0927 11.9874 37.681 12.3737 38.1406L12.4566 38.2228L27.1411 23.6763V23.3356L12.4566 8.77734L12.3737 8.8596Z" fill="url(#paint0_linear_1104_7593)"/>
<path d="M31.9999 28.5307L27.1406 23.6779V23.3372L31.9999 18.4727L32.1065 18.5314L37.9258 21.8097C39.5851 22.7379 39.5851 24.2654 37.9258 25.2054L32.1303 28.4719L31.9999 28.5307Z" fill="url(#paint1_linear_1104_7593)"/>
<path d="M32.1419 28.4585L27.1405 23.5L12.373 38.1405C12.7113 38.4353 13.1427 38.6036 13.5928 38.6165C14.0429 38.6294 14.4834 38.4859 14.8382 38.211L32.1538 28.4585" fill="url(#paint2_linear_1104_7593)"/>
<path d="M32.1421 18.5416L14.8265 8.78909C14.4717 8.51416 14.0312 8.37074 13.5811 8.38361C13.131 8.39648 12.6995 8.56484 12.3613 8.8596L27.1406 23.5001L32.1421 18.5416Z" fill="url(#paint3_linear_1104_7593)"/>
<path opacity="0.2" d="M31.9997 28.3516L14.8264 38.0453C14.4842 38.2989 14.0684 38.436 13.6412 38.436C13.214 38.436 12.7982 38.2989 12.456 38.0453L12.373 38.1276L12.456 38.2098C12.7974 38.4653 13.2135 38.6034 13.6412 38.6034C14.0689 38.6034 14.485 38.4653 14.8264 38.2098L32.1419 28.4573L31.9997 28.3516Z" fill="black"/>
<path opacity="0.12" d="M12.3737 37.976C11.9874 37.5164 11.7924 36.9281 11.8285 36.331V36.5072C11.7924 37.1044 11.9874 37.6927 12.3737 38.1523L12.4566 38.07L12.3737 37.976ZM37.9262 25.0275L32.0003 28.3528L32.107 28.4585L37.9262 25.192C38.2564 25.0382 38.5399 24.8008 38.748 24.5038C38.9561 24.2067 39.0814 23.8605 39.1114 23.5C39.0448 23.8275 38.9033 24.1355 38.6978 24.4003C38.4924 24.6651 38.2284 24.8796 37.9262 25.0275Z" fill="black"/>
<path opacity="0.25" d="M14.8268 8.95141L37.926 21.9704C38.2282 22.1183 38.4922 22.3329 38.6976 22.5977C38.9031 22.8625 39.0446 23.1704 39.1112 23.4979C39.0812 23.1375 38.9558 22.7912 38.7478 22.4942C38.5397 22.1971 38.2562 21.9597 37.926 21.8059L14.8268 8.78691C13.1675 7.85866 11.8164 8.63416 11.8164 10.5142V10.6904C11.852 8.79866 13.1794 8.02316 14.8268 8.95141Z" fill="white"/>
<defs>
<linearGradient id="paint0_linear_1104_7593" x1="25.8374" y1="10.2343" x2="6.12159" y2="30.121" gradientUnits="userSpaceOnUse">
<stop stop-color="#00A0FF"/>
<stop offset="0.01" stop-color="#00A1FF"/>
<stop offset="0.26" stop-color="#00BEFF"/>
<stop offset="0.51" stop-color="#00D2FF"/>
<stop offset="0.76" stop-color="#00DFFF"/>
<stop offset="1" stop-color="#00E3FF"/>
</linearGradient>
<linearGradient id="paint1_linear_1104_7593" x1="40.0947" y1="23.5017" x2="11.4251" y2="23.5017" gradientUnits="userSpaceOnUse">
<stop stop-color="#FFE000"/>
<stop offset="0.41" stop-color="#FFBD00"/>
<stop offset="0.78" stop-color="#FFA500"/>
<stop offset="1" stop-color="#FF9C00"/>
</linearGradient>
<linearGradient id="paint2_linear_1104_7593" x1="29.4279" y1="26.2025" x2="2.68575" y2="53.1646" gradientUnits="userSpaceOnUse">
<stop stop-color="#FF3A44"/>
<stop offset="1" stop-color="#C31162"/>
</linearGradient>
<linearGradient id="paint3_linear_1104_7593" x1="8.6517" y1="0.211594" x2="20.5893" y2="12.2526" gradientUnits="userSpaceOnUse">
<stop stop-color="#32A071"/>
<stop offset="0.07" stop-color="#2DA771"/>
<stop offset="0.48" stop-color="#15CF74"/>
<stop offset="0.8" stop-color="#06E775"/>
<stop offset="1" stop-color="#00F076"/>
</linearGradient>
</defs>
</svg>
