<svg width="160" height="47" viewBox="0 0 160 47" fill="none" xmlns="http://www.w3.org/2000/svg">
<path d="M154.074 0H5.92593C2.65313 0 0 2.63033 0 5.875V41.125C0 44.3697 2.65313 47 5.92593 47H154.074C157.347 47 160 44.3697 160 41.125V5.875C160 2.63033 157.347 0 154.074 0Z" fill="black"/>
<path d="M80.7589 25.5559C79.7637 25.5605 78.7922 25.8573 77.967 26.4089C77.1417 26.9604 76.4998 27.7419 76.1222 28.6548C75.7446 29.5677 75.6482 30.571 75.8453 31.5382C76.0423 32.5053 76.5239 33.3929 77.2292 34.089C77.9346 34.785 78.8322 35.2583 79.8086 35.4491C80.785 35.6399 81.7966 35.5396 82.7156 35.161C83.6346 34.7823 84.4199 34.1422 84.9724 33.3215C85.5248 32.5008 85.8196 31.5363 85.8196 30.5496C85.8293 29.8892 85.7048 29.2336 85.4536 28.6219C85.2024 28.0101 84.8296 27.4547 84.3574 26.9888C83.8852 26.5229 83.3233 26.1559 82.7051 25.9097C82.0868 25.6635 81.425 25.5432 80.7589 25.5559ZM80.7589 33.5811C80.1468 33.6236 79.5361 33.4825 79.006 33.1762C78.4759 32.8699 78.0509 32.4127 77.7865 31.8638C77.522 31.3149 77.4302 30.6999 77.5229 30.0986C77.6157 29.4973 77.8888 28.9376 78.3067 28.4922C78.7246 28.0469 79.268 27.7364 79.8662 27.6013C80.4644 27.4661 81.0898 27.5125 81.661 27.7344C82.2323 27.9563 82.723 28.3435 83.0694 28.8455C83.4158 29.3476 83.6018 29.9414 83.6033 30.5496C83.6224 30.935 83.5635 31.3203 83.43 31.6828C83.2965 32.0453 83.0911 32.3776 82.826 32.6601C82.5609 32.9427 82.2414 33.1697 81.8864 33.3279C81.5314 33.4861 81.148 33.5722 80.7589 33.5811ZM69.7248 25.5559C68.7291 25.5582 67.7564 25.8531 66.9296 26.4032C66.1028 26.9533 65.4591 27.734 65.0797 28.6467C64.7002 29.5594 64.6022 30.5631 64.7979 31.531C64.9936 32.499 65.4742 33.3877 66.1791 34.0849C66.884 34.7821 67.7816 35.2565 68.7583 35.4483C69.7351 35.64 70.7473 35.5404 71.667 35.1621C72.5867 34.7838 73.3727 34.1437 73.9256 33.3228C74.4786 32.5018 74.7737 31.5368 74.7737 30.5496C74.7834 29.8892 74.6589 29.2336 74.4077 28.6219C74.1565 28.0101 73.7837 27.4547 73.3115 26.9888C72.8393 26.5229 72.2774 26.1559 71.6591 25.9097C71.0409 25.6635 70.3791 25.5432 69.713 25.5559H69.7248ZM69.7248 33.5811C69.1125 33.626 68.5007 33.487 67.9691 33.1823C67.4376 32.8776 67.0108 32.4213 66.7445 31.8728C66.4782 31.3243 66.3846 30.709 66.4759 30.107C66.5672 29.5051 66.8392 28.9443 67.2564 28.4977C67.6737 28.0511 68.2169 27.7395 68.8154 27.6032C69.4138 27.467 70.0398 27.5126 70.6118 27.734C71.1837 27.9554 71.6752 28.3424 72.0222 28.8445C72.3693 29.3467 72.5557 29.9409 72.5574 30.5496C72.5765 30.935 72.5176 31.3203 72.3841 31.6828C72.2505 32.0453 72.0452 32.3776 71.7801 32.6601C71.515 32.9427 71.1955 33.1697 70.8405 33.3279C70.4855 33.4861 70.1021 33.5722 69.713 33.5811H69.7248ZM56.5811 27.0951V29.2101H61.7011C61.6208 30.2063 61.2032 31.1463 60.5159 31.8774C60.0037 32.3947 59.3879 32.7999 58.7082 33.067C58.0285 33.3341 57.2999 33.4572 56.5693 33.4284C55.0605 33.4284 53.6135 32.8342 52.5466 31.7765C51.4797 30.7188 50.8804 29.2842 50.8804 27.7884C50.8804 26.2926 51.4797 24.858 52.5466 23.8003C53.6135 22.7426 55.0605 22.1484 56.5693 22.1484C58.0126 22.125 59.4063 22.6701 60.4448 23.6641L61.95 22.1719C61.2489 21.4681 60.4125 20.911 59.4903 20.5335C58.5681 20.1561 57.5788 19.966 56.5811 19.9746C55.5275 19.934 54.4764 20.1046 53.4909 20.4763C52.5054 20.848 51.6057 21.4131 50.8457 22.1378C50.0858 22.8625 49.4812 23.7318 49.0682 24.6937C48.6552 25.6555 48.4424 26.6901 48.4424 27.7355C48.4424 28.7809 48.6552 29.8155 49.0682 30.7773C49.4812 31.7392 50.0858 32.6085 50.8457 33.3332C51.6057 34.0579 52.5054 34.623 53.4909 34.9947C54.4764 35.3664 55.5275 35.537 56.5811 35.4964C57.5956 35.5418 58.6081 35.3713 59.5505 34.9964C60.493 34.6214 61.3435 34.0507 62.0448 33.3226C63.2865 31.9701 63.9495 30.1921 63.8937 28.3641C63.8975 27.9188 63.8578 27.4741 63.7752 27.0364L56.5811 27.0951ZM110.282 28.7401C109.973 27.8386 109.395 27.0514 108.624 26.4828C107.854 25.9141 106.928 25.5909 105.968 25.5559C105.319 25.5546 104.678 25.6852 104.082 25.9396C103.487 26.1939 102.951 26.5666 102.506 27.0347C102.062 27.5027 101.719 28.0561 101.499 28.6607C101.279 29.2653 101.187 29.9082 101.227 30.5496C101.213 31.2063 101.332 31.8592 101.578 32.4692C101.823 33.0792 102.191 33.6339 102.658 34.1C103.124 34.5661 103.681 34.9342 104.295 35.1822C104.908 35.4302 105.566 35.553 106.229 35.5434C107.058 35.5478 107.875 35.3483 108.607 34.9628C109.339 34.5773 109.964 34.0178 110.424 33.3344L108.706 32.1594C108.449 32.5833 108.086 32.9339 107.652 33.177C107.218 33.42 106.727 33.5471 106.229 33.5459C105.715 33.5653 105.208 33.4311 104.772 33.1608C104.337 32.8904 103.994 32.4965 103.787 32.0301L110.531 29.2689L110.282 28.7401ZM103.408 30.4086C103.384 30.0452 103.433 29.6807 103.553 29.3364C103.673 28.9921 103.861 28.675 104.106 28.4036C104.351 28.1322 104.648 27.9121 104.98 27.756C105.312 27.5999 105.672 27.511 106.039 27.4946C106.421 27.4697 106.802 27.5566 107.135 27.7446C107.468 27.9326 107.738 28.2134 107.911 28.5521L103.408 30.4086ZM97.9322 35.2496H100.149V20.5621H97.9322V35.2496ZM94.3056 26.6721H94.2226C93.8886 26.3019 93.4794 26.0058 93.0219 25.8033C92.5643 25.6008 92.0688 25.4965 91.5678 25.4971C90.2726 25.5594 89.0512 26.1133 88.1568 27.0441C87.2624 27.9749 86.7634 29.2112 86.7634 30.4968C86.7634 31.7823 87.2624 33.0186 88.1568 33.9494C89.0512 34.8802 90.2726 35.4341 91.5678 35.4964C92.07 35.5047 92.568 35.4039 93.0267 35.2009C93.4854 34.9979 93.8936 34.6977 94.2226 34.3214H94.2937V35.0381C94.2937 36.9534 93.2626 37.9756 91.6033 37.9756C91.0507 37.9628 90.5144 37.7872 90.0628 37.4713C89.6111 37.1553 89.2645 36.7133 89.067 36.2014L87.1352 37.0004C87.4988 37.8773 88.1185 38.6266 88.9146 39.1521C89.7107 39.6776 90.6469 39.9553 91.6033 39.9496C94.1989 39.9496 96.3441 38.4339 96.3441 34.7444V25.8496H94.3056V26.6721ZM91.7693 33.5811C91.0048 33.5143 90.2932 33.166 89.7749 32.6049C89.2566 32.0438 88.9691 31.3105 88.9691 30.5496C88.9691 29.7888 89.2566 29.0555 89.7749 28.4943C90.2932 27.9332 91.0048 27.5849 91.7693 27.5181C92.1483 27.5374 92.5196 27.6317 92.8614 27.7955C93.2031 27.9592 93.5083 28.1891 93.759 28.4716C94.0097 28.7541 94.2009 29.0835 94.3212 29.4404C94.4415 29.7973 94.4886 30.1744 94.4596 30.5496C94.492 30.9264 94.4469 31.3058 94.3271 31.6649C94.2073 32.0239 94.0153 32.3551 93.7627 32.6385C93.5101 32.9219 93.2022 33.1515 92.8575 33.3136C92.5128 33.4756 92.1386 33.5666 91.7574 33.5811H91.7693ZM120.664 20.5621H115.366V35.2496H117.583V29.6801H120.676C121.308 29.7251 121.942 29.6406 122.539 29.4319C123.136 29.2232 123.684 28.8947 124.147 28.4669C124.611 28.0392 124.981 27.5213 125.233 26.9457C125.486 26.3701 125.617 25.749 125.617 25.1211C125.617 24.4933 125.486 23.8722 125.233 23.2965C124.981 22.7209 124.611 22.2031 124.147 21.7753C123.684 21.3476 123.136 21.0191 122.539 20.8104C121.942 20.6016 121.308 20.5171 120.676 20.5621H120.664ZM120.664 27.6121H117.571V22.6066H120.711C121.386 22.6066 122.032 22.8722 122.509 23.3448C122.986 23.8175 123.254 24.4586 123.254 25.127C123.254 25.7954 122.986 26.4365 122.509 26.9092C122.032 27.3818 121.386 27.6474 120.711 27.6474L120.664 27.6121ZM134.329 25.4971C133.522 25.4493 132.719 25.6362 132.018 26.035C131.317 26.4337 130.748 27.0268 130.383 27.7414L132.35 28.5521C132.544 28.1977 132.838 27.9068 133.195 27.7149C133.553 27.523 133.959 27.4383 134.365 27.4711C134.646 27.4386 134.931 27.4618 135.203 27.5397C135.476 27.6175 135.729 27.7482 135.95 27.9243C136.171 28.1004 136.354 28.3183 136.489 28.5653C136.623 28.8123 136.707 29.0834 136.735 29.3629V29.5156C136.023 29.142 135.23 28.9482 134.424 28.9516C132.303 28.9516 130.157 30.1266 130.157 32.2534C130.178 32.7069 130.291 33.1516 130.488 33.5612C130.685 33.9709 130.963 34.3371 131.306 34.6384C131.649 34.9396 132.049 35.1697 132.482 35.3151C132.916 35.4604 133.375 35.5181 133.831 35.4846C134.39 35.5244 134.948 35.4144 135.449 35.1663C135.949 34.9182 136.373 34.5411 136.676 34.0746H136.747V35.2496H138.88V29.5979C138.88 27.0246 136.913 25.5324 134.389 25.5324L134.329 25.4971ZM134.057 33.5459C133.334 33.5459 132.326 33.1816 132.326 32.3004C132.326 31.1254 133.583 30.7376 134.697 30.7376C135.401 30.7204 136.097 30.8908 136.711 31.2311C136.637 31.8673 136.334 32.4554 135.857 32.8873C135.38 33.3191 134.762 33.5655 134.116 33.5811L134.057 33.5459ZM146.655 25.8496L144.119 32.2181H144.048L141.417 25.8496H139.046L142.993 34.7561L140.741 39.7029H143.052L149.12 25.8496H146.655ZM126.732 35.2496H128.949V20.5621H126.732V35.2496Z" fill="white"/>
<path d="M56.1275 12.1038C56.1477 12.5348 56.0793 12.9653 55.9265 13.3693C55.7737 13.7733 55.5397 14.1422 55.2386 14.4538C54.9025 14.8 54.4966 15.072 54.0473 15.2522C53.5981 15.4324 53.1156 15.5167 52.6312 15.4996C51.8964 15.4939 51.1796 15.2733 50.5707 14.8655C49.9617 14.4577 49.4877 13.8808 49.208 13.207C48.9284 12.5333 48.8555 11.7928 48.9985 11.0782C49.1415 10.3635 49.494 9.70666 50.012 9.18982C50.3524 8.84529 50.7605 8.57368 51.211 8.39178C51.6615 8.20989 52.1449 8.12158 52.6312 8.13233C53.1323 8.13067 53.6284 8.23064 54.089 8.42607C54.5179 8.59757 54.8997 8.86735 55.2031 9.21333L54.5749 9.83607C54.3384 9.55712 54.0396 9.33653 53.7023 9.19175C53.365 9.04696 52.9983 8.98194 52.6312 9.00182C52.261 9.00002 51.8943 9.07236 51.553 9.21449C51.2116 9.35662 50.9028 9.56562 50.6449 9.82895C50.387 10.0923 50.1854 10.4045 50.0523 10.747C49.9191 11.0894 49.857 11.455 49.8697 11.8218C49.862 12.3695 50.018 12.9073 50.3181 13.3671C50.6183 13.827 51.0491 14.1885 51.5562 14.406C52.0633 14.6234 52.624 14.6871 53.1676 14.5889C53.7112 14.4908 54.2132 14.2353 54.6105 13.8546C54.9752 13.4628 55.1855 12.9539 55.2031 12.4211H52.6312V11.5751H56.0801C56.1117 11.7496 56.1276 11.9265 56.1275 12.1038ZM61.5557 9.16632H58.3557V11.3988H61.2712V12.2448H58.3557V14.4773H61.5557V15.3468H57.4075V8.29682H61.5557V9.16632ZM65.4431 15.3468H64.5305V9.16632H62.5394V8.29682H67.4816V9.16632H65.4431V15.3468ZM70.966 15.3468V8.29682H71.8786V15.3468H70.966ZM75.932 15.3468H75.0194V9.16632H73.0283V8.29682H77.9112V9.16632H75.932V15.3468ZM87.1675 14.4303C86.4747 15.1134 85.5373 15.4968 84.5601 15.4968C83.583 15.4968 82.6456 15.1134 81.9527 14.4303C81.2793 13.7236 80.9041 12.7882 80.9041 11.8159C80.9041 10.8437 81.2793 9.90831 81.9527 9.20157C82.2942 8.86052 82.7004 8.58984 83.1479 8.40512C83.5954 8.22041 84.0754 8.12531 84.5601 8.12531C85.0449 8.12531 85.5248 8.22041 85.9723 8.40512C86.4198 8.58984 86.826 8.86052 87.1675 9.20157C87.8436 9.90696 88.2206 10.8429 88.2206 11.8159C88.2206 12.789 87.8436 13.7249 87.1675 14.4303ZM82.6283 13.8428C83.1414 14.3494 83.836 14.6338 84.5601 14.6338C85.2842 14.6338 85.9789 14.3494 86.492 13.8428C86.9983 13.2894 87.2788 12.569 87.2788 11.8218C87.2788 11.0747 86.9983 10.3542 86.492 9.80083C85.9789 9.29426 85.2842 9.00985 84.5601 9.00985C83.836 9.00985 83.1414 9.29426 82.6283 9.80083C82.1219 10.3542 81.8414 11.0747 81.8414 11.8218C81.8414 12.569 82.1219 13.2894 82.6283 13.8428ZM89.5023 15.3468V8.29682H90.6164L94.0772 13.7841V8.29682H94.9897V15.3468H94.0416L90.4268 9.60107V15.3468H89.5023Z" fill="white"/>
<path fill-rule="evenodd" clip-rule="evenodd" d="M84.5601 8.24281C84.091 8.24281 83.6265 8.33484 83.1935 8.5136C82.7609 8.69217 82.3681 8.95376 82.0379 9.28332C81.3858 9.96812 81.0226 10.8742 81.0226 11.8159C81.0226 12.7576 81.3857 13.6635 82.0376 14.3483C82.7081 15.0087 83.6149 15.3793 84.5601 15.3793C85.5054 15.3793 86.4122 15.0086 87.0828 14.3482C87.7372 13.6648 88.1021 12.7583 88.1021 11.8159C88.1021 10.8734 87.7371 9.96691 87.0825 9.28348C86.7522 8.95384 86.3594 8.6922 85.9267 8.5136C85.4937 8.33484 85.0292 8.24281 84.5601 8.24281ZM83.1024 8.29665C83.5643 8.10598 84.0597 8.00781 84.5601 8.00781C85.0605 8.00781 85.5559 8.10598 86.0179 8.29665C86.4798 8.48732 86.8991 8.76674 87.2516 9.11879L87.2535 9.12062C87.9505 9.84784 88.3392 10.8127 88.3392 11.8159C88.3392 12.8192 87.9505 13.784 87.2534 14.5113L87.2511 14.5137C86.5361 15.2186 85.5686 15.6143 84.5601 15.6143C83.5517 15.6143 82.5842 15.2186 81.8691 14.5136L81.8665 14.5111C81.1723 13.7825 80.7855 12.8182 80.7855 11.8159C80.7855 10.8137 81.1723 9.84943 81.8666 9.12088L81.8686 9.11877C82.2211 8.76671 82.6404 8.48733 83.1024 8.29665ZM52.6286 8.2498C52.1585 8.23941 51.6912 8.32477 51.2557 8.50061C50.8202 8.67644 50.4257 8.939 50.0966 9.27205L50.096 9.27264C49.5946 9.77307 49.2532 10.4091 49.1147 11.101C48.9763 11.7929 49.0469 12.51 49.3176 13.1623C49.5884 13.8147 50.0474 14.3733 50.637 14.7681C51.2266 15.163 51.9207 15.3766 52.6322 15.3821L52.6354 15.3821C53.1031 15.3986 53.5691 15.3173 54.0029 15.1433C54.4367 14.9693 54.8286 14.7066 55.1531 14.3725C55.443 14.0724 55.6683 13.7171 55.8155 13.3281C55.9627 12.939 56.0285 12.5243 56.0091 12.1093L56.1275 12.1038L56.009 12.1038C56.0091 11.9661 55.9991 11.8287 55.9793 11.6926H52.7497V12.3036H55.3255L55.3215 12.4249C55.303 12.986 55.0816 13.5217 54.6976 13.9343L54.693 13.9392C54.2789 14.336 53.7554 14.6022 53.1888 14.7045C52.6222 14.8068 52.0377 14.7405 51.5091 14.5138C50.9805 14.2871 50.5315 13.9104 50.2186 13.431C49.9063 12.9524 49.7437 12.393 49.7512 11.823C49.7383 11.4414 49.8031 11.061 49.9417 10.7047C50.0806 10.3475 50.2909 10.0218 50.5599 9.74711C50.8289 9.47242 51.151 9.25441 51.5071 9.10615C51.862 8.95835 52.2433 8.88291 52.6283 8.88431C53.0125 8.86404 53.3963 8.93236 53.7494 9.08392C54.0641 9.21899 54.3468 9.41688 54.5801 9.66475L55.0396 9.20925C54.7614 8.91612 54.422 8.68593 54.0447 8.53504L54.0424 8.53412C53.5966 8.34499 53.1165 8.24822 52.6316 8.24982L52.6286 8.2498ZM56.246 12.1011C56.2665 12.5471 56.1956 12.9925 56.0374 13.4106C55.879 13.8294 55.6363 14.212 55.3242 14.5351C54.9766 14.8931 54.5565 15.1747 54.0918 15.3611C53.6276 15.5473 53.1291 15.6345 52.6287 15.6171C51.8711 15.6109 51.1321 15.3833 50.5043 14.9629C49.876 14.5421 49.387 13.9469 49.0984 13.2518C48.8099 12.5567 48.7347 11.7926 48.8822 11.0553C49.0298 10.3181 49.3934 9.6405 49.9276 9.1073C50.2793 8.75143 50.7009 8.47087 51.1663 8.28296C51.6314 8.09519 52.1303 8.00393 52.6324 8.01482C53.1486 8.01332 53.6598 8.11634 54.1345 8.31757C54.5803 8.49603 54.9771 8.77656 55.2925 9.13623L55.365 9.21892L54.5674 10.0097L54.4842 9.91169C54.2595 9.64668 53.9757 9.43712 53.6552 9.29958C53.3347 9.16203 52.9864 9.10026 52.6377 9.11915L52.6306 9.11953C52.2764 9.11781 51.9255 9.18681 51.5988 9.32282C51.2722 9.45882 50.9767 9.65881 50.7299 9.9108C50.4832 10.1628 50.2903 10.4616 50.1628 10.7893C50.0354 11.1169 49.976 11.4668 49.9882 11.8178L49.9884 11.8235C49.981 12.348 50.1302 12.8629 50.4176 13.3033C50.7051 13.7437 51.1176 14.0899 51.6032 14.2981C52.0889 14.5063 52.6258 14.5673 53.1463 14.4733C53.6658 14.3796 54.1456 14.1357 54.5257 13.7724C54.8419 13.4316 55.0351 12.9976 55.0771 12.5386H52.5127V11.4576H56.1792L56.1968 11.5543C56.2295 11.7348 56.246 11.9178 56.246 12.1011ZM57.289 8.17932H61.6742V9.28382H58.4742V11.2813H61.3897V12.3623H58.4742V14.3598H61.6742V15.4643H57.289V8.17932ZM57.526 8.41432V15.2293H61.4372V14.5948H58.2372V12.1273H61.1527V11.5163H58.2372V9.04882H61.4372V8.41432H57.526ZM62.4209 8.17932H67.6001V9.28382H65.5616V15.4643H64.412V9.28382H62.4209V8.17932ZM62.6579 8.41432V9.04882H64.649V15.2293H65.3246V9.04882H67.3631V8.41432H62.6579ZM70.8475 8.17932H71.9972V15.4643H70.8475V8.17932ZM71.0846 8.41432V15.2293H71.7601V8.41432H71.0846ZM72.9097 8.17932H78.0298V9.28382H76.0505V15.4643H74.9009V9.28382H72.9097V8.17932ZM73.1468 8.41432V9.04882H75.1379V15.2293H75.8134V9.04882H77.7927V8.41432H73.1468ZM89.3838 8.17932H90.6821L93.9586 13.3745V8.17932H95.1083V15.4643H93.9758L90.5453 10.0115V15.4643H89.3838V8.17932ZM89.6209 8.41432V15.2293H90.3083V9.19066L94.1074 15.2293H94.8712V8.41432H94.1957V14.1936L90.5507 8.41432H89.6209ZM82.5446 9.71757C83.0799 9.18907 83.8046 8.89235 84.5601 8.89235C85.3156 8.89235 86.0403 9.18907 86.5756 9.71757L86.5799 9.72178C87.106 10.2968 87.3973 11.0455 87.3973 11.8218C87.3973 12.5982 87.1059 13.3467 86.5798 13.9218L86.5757 13.9262C86.0404 14.4547 85.3156 14.7513 84.5601 14.7513C83.8046 14.7513 83.0799 14.4546 82.5446 13.9261L82.6283 13.8428L82.5405 13.9218C82.0143 13.3467 81.7229 12.5982 81.7229 11.8218C81.7229 11.0455 82.0143 10.2969 82.5405 9.72188L82.5446 9.71757ZM82.714 13.7617C83.2047 14.245 83.8684 14.5163 84.5601 14.5163C85.2519 14.5163 85.9155 14.245 86.4062 13.7617C86.8915 13.2302 87.1603 12.5388 87.1603 11.8218C87.1603 11.1048 86.8915 10.4135 86.4062 9.88197C85.9155 9.39865 85.2519 9.12735 84.5601 9.12735C83.8684 9.12735 83.2047 9.39865 82.714 9.88197C82.2287 10.4135 81.9599 11.1048 81.9599 11.8218C81.9599 12.5388 82.2287 13.2302 82.714 13.7617Z" fill="white"/>
<path d="M12.3737 8.8596C11.9874 9.31915 11.7924 9.90745 11.8285 10.5046V36.4956C11.7924 37.0927 11.9874 37.681 12.3737 38.1406L12.4566 38.2228L27.1411 23.6763V23.3356L12.4566 8.77734L12.3737 8.8596Z" fill="url(#paint0_linear_1104_7609)"/>
<path d="M31.9999 28.5307L27.1406 23.6779V23.3372L31.9999 18.4727L32.1065 18.5314L37.9258 21.8097C39.5851 22.7379 39.5851 24.2654 37.9258 25.2054L32.1303 28.4719L31.9999 28.5307Z" fill="url(#paint1_linear_1104_7609)"/>
<path d="M32.1419 28.4585L27.1405 23.5L12.373 38.1405C12.7113 38.4353 13.1427 38.6036 13.5928 38.6165C14.0429 38.6294 14.4834 38.4859 14.8382 38.211L32.1538 28.4585" fill="url(#paint2_linear_1104_7609)"/>
<path d="M32.1421 18.5416L14.8265 8.78909C14.4717 8.51416 14.0312 8.37074 13.5811 8.38361C13.131 8.39648 12.6995 8.56484 12.3613 8.8596L27.1406 23.5001L32.1421 18.5416Z" fill="url(#paint3_linear_1104_7609)"/>
<path opacity="0.2" d="M31.9997 28.3516L14.8264 38.0453C14.4842 38.2989 14.0684 38.436 13.6412 38.436C13.214 38.436 12.7982 38.2989 12.456 38.0453L12.373 38.1276L12.456 38.2098C12.7974 38.4653 13.2135 38.6034 13.6412 38.6034C14.0689 38.6034 14.485 38.4653 14.8264 38.2098L32.1419 28.4573L31.9997 28.3516Z" fill="black"/>
<path opacity="0.12" d="M12.3737 37.976C11.9874 37.5164 11.7924 36.9281 11.8285 36.331V36.5072C11.7924 37.1044 11.9874 37.6927 12.3737 38.1523L12.4566 38.07L12.3737 37.976ZM37.9262 25.0275L32.0003 28.3528L32.107 28.4585L37.9262 25.192C38.2564 25.0382 38.5399 24.8008 38.748 24.5038C38.956 24.2067 39.0814 23.8605 39.1114 23.5C39.0448 23.8275 38.9033 24.1355 38.6978 24.4003C38.4924 24.6651 38.2284 24.8796 37.9262 25.0275Z" fill="black"/>
<path opacity="0.25" d="M14.8268 8.95141L37.926 21.9704C38.2282 22.1183 38.4922 22.3329 38.6976 22.5977C38.9031 22.8625 39.0446 23.1704 39.1112 23.4979C39.0812 23.1375 38.9558 22.7912 38.7478 22.4942C38.5397 22.1971 38.2562 21.9597 37.926 21.8059L14.8268 8.78691C13.1675 7.85866 11.8164 8.63416 11.8164 10.5142V10.6904C11.852 8.79866 13.1794 8.02316 14.8268 8.95141Z" fill="white"/>
<defs>
<linearGradient id="paint0_linear_1104_7609" x1="25.8374" y1="10.2343" x2="6.12159" y2="30.121" gradientUnits="userSpaceOnUse">
<stop stop-color="#00A0FF"/>
<stop offset="0.01" stop-color="#00A1FF"/>
<stop offset="0.26" stop-color="#00BEFF"/>
<stop offset="0.51" stop-color="#00D2FF"/>
<stop offset="0.76" stop-color="#00DFFF"/>
<stop offset="1" stop-color="#00E3FF"/>
</linearGradient>
<linearGradient id="paint1_linear_1104_7609" x1="40.0947" y1="23.5017" x2="11.4251" y2="23.5017" gradientUnits="userSpaceOnUse">
<stop stop-color="#FFE000"/>
<stop offset="0.41" stop-color="#FFBD00"/>
<stop offset="0.78" stop-color="#FFA500"/>
<stop offset="1" stop-color="#FF9C00"/>
</linearGradient>
<linearGradient id="paint2_linear_1104_7609" x1="29.4279" y1="26.2025" x2="2.68576" y2="53.1646" gradientUnits="userSpaceOnUse">
<stop stop-color="#FF3A44"/>
<stop offset="1" stop-color="#C31162"/>
</linearGradient>
<linearGradient id="paint3_linear_1104_7609" x1="8.6517" y1="0.211594" x2="20.5893" y2="12.2526" gradientUnits="userSpaceOnUse">
<stop stop-color="#32A071"/>
<stop offset="0.07" stop-color="#2DA771"/>
<stop offset="0.48" stop-color="#15CF74"/>
<stop offset="0.8" stop-color="#06E775"/>
<stop offset="1" stop-color="#00F076"/>
</linearGradient>
</defs>
</svg>
