<svg width="539" height="464" viewBox="0 0 539 464" fill="none" xmlns="http://www.w3.org/2000/svg">
<path opacity="0.7" d="M175.138 181.184C124.41 175.409 75.0478 153.527 42.9621 111.676C15.2203 75.4908 7.26039 39.5755 1 1M175.138 181.184C218.649 186.138 263.96 179.198 291.224 163.32C321.189 145.868 341.143 109.961 327.039 80.8502C310.844 47.4267 275.435 48.069 245.954 66.8262C216.473 85.5834 192.552 122.94 175.138 181.184ZM175.138 181.184C165.758 212.555 165.499 246.886 174.601 280.534C200.603 376.656 298.165 464.354 522 441" stroke="white" stroke-width="1.5"/>
<path d="M190.138 190.184C139.41 184.409 90.0478 162.527 57.9621 120.676C30.2203 84.4908 22.2604 48.5755 16 10M190.138 190.184C233.649 195.138 278.96 188.198 306.224 172.32C336.189 154.868 356.143 118.961 342.039 89.8502C325.844 56.4267 290.435 57.069 260.954 75.8262C231.473 94.5834 207.552 131.94 190.138 190.184ZM190.138 190.184C180.758 221.555 180.499 255.886 189.601 289.534C215.603 385.656 313.165 473.354 537 450" stroke="#52D3C1" stroke-width="20"/>
</svg>
